/* XPM */
static char *result[] = {
/* columns rows colors chars-per-pixel */
"64 64 63 1 ",
"  c #4F2913",
". c #4F2C18",
"X c #512C17",
"o c #512E19",
"O c #55321D",
"+ c #4F3525",
"@ c #553624",
"# c #553825",
"$ c #5A3B27",
"% c #553B2B",
"& c #593C2A",
"* c #563F30",
"= c #583F30",
"- c #5B412F",
"; c #574030",
": c #5C4535",
"> c #5F4837",
", c #5A4739",
"< c #5C4A3D",
"1 c #604431",
"2 c #624936",
"3 c #634D3C",
"4 c #684F3F",
"5 c #5C4D41",
"6 c #5C5247",
"7 c #5E5449",
"8 c #635243",
"9 c #685241",
"0 c #61554A",
"q c #63594E",
"w c #6B5B4B",
"e c #655C53",
"r c #695F53",
"t c #665F58",
"y c #666057",
"u c #6E6355",
"i c #676159",
"p c #6A645C",
"a c #6D695F",
"s c #706050",
"d c #70675C",
"f c #786659",
"g c #716A5D",
"h c #786E5F",
"j c #6D6760",
"k c #6D6960",
"l c #716D62",
"z c #737064",
"x c #7B7365",
"c c #767469",
"v c #7A766B",
"b c #7A786E",
"n c #7E7B72",
"m c #807B6E",
"M c #827F76",
"N c #828077",
"B c #868479",
"V c #89867D",
"C c #8E8C83",
"Z c #908E85",
"A c #929087",
"S c #929088",
"D c None",
/* pixels */
"fSBBBBB4O$O-232-$13wxaO-$$$$$$$$$$-$$$$$-#$$$$-ODDD--O-$-O$$$$$$",
"4SBBBBBBBmxxxxxhsssssvsssssssssssssssssssusssssw2sssssxxxxxxxxxx",
"4ABBBBBBBBBBBBBBBBBBBBBBBBBBBBBBBBBBBBBBBBBBBBBx-BBBBBBBBBBBBBBB",
"2ABBBBBBBBBBBBBBBBBBBBBBBBBBBBBBBBBBBBBBBBBBBBBx1NBBBBBBBBBBBBBB",
"$BAAAASAAAAAVVAASAAAAAACVAZZZZCCZZZZVAAVCCACCCCC1VVZZVCCCZAAVAAA",
"XNMMMMMMNNNNBBBBMMNMMrccvvccccccccccvvvvccccccla>gcccvczczczmxcx",
" Mkkkaaaaaaaaagaaakaa3jaaaaaaaaakaaaaaaaakaakkak:rppaaapapappaaa",
" Mkaakakaaaaaaaakaaak<paaaaaaaaakaaaaaaaaakkkkak:spaappapaapapap",
" Nakjjjkaaaaaajaaajka,aapjakaaaaaaakjaaaajjakapk,yapapapapapaapa",
" Nppipppaaaaaajajaaaa:aakaaaaaaaakkpjaaapaapkpap,ypapapapapappap",
" Nipiiipipaaajaaaaaaa-aakkkkapaakppaapapppppkppk,rppapppapappapa",
" Nipipptiiiiiiipipaap:aappappapapkppjpppaapappap,qaapaappapaapap",
" bpptptpptptipiipipp7;apappappappakppkpappappakp#ypypipppppppapp",
" cptptpitpippiipiiii7+papappappaapppappapkpappppOyypiiiiiipiiiii",
" ctppppipipiippiipip0opipppkapappapapppappppppii+yayippiippiiiip",
" ctptptptptpiipipypy0oiiiiiiiiiiiiiiiiiipyiiypiioayypiipiiiippii",
"Dctpttptypyyppyyppyp7opyiiiiiiipayyapyyypipiiiii+uypyypipipiipii",
"Dcptppppyypppyaypypy0#ypyyiiipiiyyyyypyyiiiiiiiyoyypyyyppiyypiip",
"DD<,:,,:,,,;;++;##+;<<;#%+%++##++#++;+;++#+###%5<o      .    .. ",
"DD :qrppaw+  ,7777<777<+676677666666666677666<666<,;;;+;,<,66766",
"DD aaaaaaay 67777777776+6666666666666666666666666666666676766767",
"DDOcaauaaaa;7777777777<%666666666666666666666676666667<;67677676",
"DD#xddaaaaa;77777q77765;6666666666666666666666666667666;76767667",
"DD;zaaaaaaa,7777777776<;6666666666666666666666666667666;67676767",
"DDOcaauaaaao77777777775;6666666666666666676666666666666;6777777e",
"DD vaaaaaaa.yyiiiiiiyy7,yyiiitippypyypiyiiiiiiiiyiyiyyy+yyiipipy",
"DDOvaaaauaaqyyyqeyiiy7,,yyiitpiiyypyiiiiiiiiiiiiiiiiii7;<eyiiyyy",
"DD-vaaaaaaaapa,,,,<6;,,,,6676866666665<686666666765,,,+;;;677y77",
"DD>vaaaaaaaazaaapkkkkkkkkipipiiipipup6<7iipiiiiiiiiapakpapaaaaaa",
"DD@vaaaaaazgzappiipppippppppppppipppiy<yiiiiiiiiiiiiiiiiiiiiiiii",
"DDOvagggaagaayyyiiiiiiiiyiiiiiiiiiiiyy6yiiiiiiiiiiiiiiiiiiiiiiii",
"DD@vgaggagagayypiiiiiiiiyiiiiiiiiiiiiq6yiiiiiiiiiiiiiiiiiiiiiiii",
"DDOcggglagaljpiiiiittpttiitpiipiiiiiir5iiiiiiiiiitptitpiiiiitiii",
"DDOcgaaalaaakyiiiiitttppiiitittiiiiiii5iiiiiiiiiiiiiiitiiiiiptii",
"DDOczagaagkllpiiiiipiiptiiiiiiiiiiiite&etiiiitiiptiiiittitiiiiii",
"DD+bgaallalkkyiyiiiiiittptiiiiitiiiiq,%<eiitptiitiiiitpttpiiiiit",
"DD#mcaalaglakiap0555555=%%*<<<,,<,<&%%$%$60060606006056666600000",
"DDOzvvcccz2;kkakkjiitjp:%qpjpjjpttteeeqeeititiiitiiippt<8pipppip",
"DDO>>>34o  ;jkjpiiiptptq%qtttptttiiiiittiiiiiiiiiiiipti5rttttttt",
"DDOxzzzzzuO-jptttttttttt6tttttttttttttttttttttttttttttt5tttttttt",
"DDONzzzzlzq$kpttttttttttqtttttttttttttttttttttttttttttt5tttttttt",
"DDONzzzzzzg$jpttttttttttqtttttttttttttttttttttttttttttt5tttttttt",
"DDONzzzzzzz$jpytttttttttqtttttttttttttttttttttttttttttt5tttttttt",
"DD@Bzlzzzzz&jiyttttttttt5etttttttttttttttttttttttttttt0@ettttttt",
"DDOBzzlzzzz3jptttttttee066ettttttttttttttttttttttttte7%@=qeeee0q",
"DDOBzzzzzlzllttppppte06500000000e0085605650000067075@@@@@@555760",
"DDOBzzzzzcc kjjjjjjjjjjjjkkjjkpljkjkje5qpjjpjjjjjpjjjjjjjjpjjjjj",
"DDOBcccccccXjkjpptpttttttttttttttttttt6etttttttttttttttttttttttt",
"DDOBvcccvcz aayittttttttttttttttttttte5ttttttttttttttttttttttttt",
"DD@Bccccccu yitittttttttttttttttttttte8ttttttttttttttttttttttttt",
"DDOBcvvccci qittttttttttttttttttttttte6ttttttttttttttttttttttttt",
"DDOBcvcccbu 0ttttttttttttttttttttttttt0ttttttttitttttttttttttttt",
"DDOMvccccccO8tttiittttiitttttttttttttttrtittyyietttttttttttttttt",
"DD@Nccbcccc33t00080ttiiy000800qte0000800e08007yitttt03,3:&&$&:,&",
"DD@Vccccvccc9$OOOOOO:q,OOOOOOOOOOOoOOOOOOOOOOOO,t3#ooOO$1::11283",
"DDOVcvccvcccvvlducvcc8ccxccczvzvcccccccczccccvzc8cccvccccxcccccc",
"DDOCvccccvccccccccvvc0cccccccccccccccccccccccccc<cccvzcccccccccc",
"DDOAbccccccbcbcccvccc8cczcccczcczccccccccccczccc8ccccccczccccczc",
"DDOCVbccvccccccbccccv8cvccccccccccccccczvccccccc4ccczvccccbbbbbn",
"DD@CCCCCBBBBBBBBBBBBB8BBBBBBBBBBVBBBBBBBBBBBBBBBwBBBBnnMnnnnnbcc",
"DD@tyyyyyyyyyyyyiyyyy8eiyyyyyyyyyyyyttttyyyyyyyq6yyyyyyyyyyyttit",
"DDOtyyyyyyyyyyyyiiyyy8iiyyyyyyyyyyyytttiyyyyyyyr4iyyyyyyyyyyttei",
"DDOiiyyyyyyyyyyyyq6># @#:<70yyyyyyiyyiityy07<:#+ O;-<6qyyyiyii0<",
"DDD         .#o. X             @@@@@@@@                  O@@@   "
};
