/* XPM */
static char *result[] = {
/* columns rows colors chars-per-pixel */
"64 64 54 1 ",
"  c #4F2913",
". c #502B15",
"X c #512E1A",
"o c #55321D",
"O c #553623",
"+ c #563925",
"@ c #5A3B27",
"# c #563B2A",
"$ c #5A3D2B",
"% c #5D432F",
"& c #574131",
"* c #5B4434",
"= c #5B4639",
"- c #5D4A3C",
"; c #644E3C",
": c #5D4E42",
"> c #5D5247",
", c #5D5348",
"< c #604F40",
"1 c #615245",
"2 c #6B5847",
"3 c #62554A",
"4 c #645A4D",
"5 c #6A5B4D",
"6 c #665D53",
"7 c #685E53",
"8 c #665F58",
"9 c #666057",
"0 c #6A6155",
"q c #676159",
"w c #6A645C",
"e c #6D695F",
"r c #706050",
"t c #72665B",
"y c #756A5E",
"u c #6D6760",
"i c #6E6961",
"p c #716D63",
"a c #786E62",
"s c #747065",
"d c #7B7365",
"f c #767469",
"g c #7E7468",
"h c #7B796E",
"j c #7E7B72",
"k c #817D75",
"l c #868579",
"z c #88867D",
"x c #8A897E",
"c c #8E8C83",
"v c #908E85",
"b c #929087",
"n c #939189",
"m c None",
/* pixels */
"@@@@@@@@%@o%@%o%mmm%%@@@@@@@%+@@@@@@@@@@omm...  .. .    ;llllxx%",
"ddddddddddddrrr2*rrrrrrrrrrrrrrrrrrrrrrrrrh2222raaaa22rklllllxx@",
"llllllllllllllld*llxlllllllllllllllllllllllllllllllllllllllllxl@",
"llllllllllllllld*llxlllllllllllllllllllllllllllllllllllllllllxl@",
"nnnnnnnnnnbbbxbx*xxxxbxxxxxxbxxbbxbbxxnnnnbbbbbbxnbbbbbbnnnnxxk@",
"eeeeeeeeeeffeeyp*fhfffjjjljjllkjkkjjljjljjtljljjllhlkkklkkkklkk@",
"eeeeeeeeeeeeeeee*0eweeweeweeweweeee0eeeeeq#qeeewrweewweewwwwryk ",
"eeeeeeeeeeeeeeee*9wweeewwewewwewewee0wewee#eeqwwwewwwwwwwwtwtrko",
"eeeeeeeeeeeeeeee*0weweeeweewewwewwewweweww&weeqeewwewwwuewwwwpa@",
"eeeeeweeeewwwwww*9ewewweewweweeuewweewewwe&wqeewwwewuuwwwww88ua@",
"ewwewewewweeweew=9weweweweewewuweeeweewee0+wqeewwewuweuqwwqwwut@",
"ewwewwweewwwewwe=9wwwwwwwweqeqwwwwwwwwwwew&weeqewwwewqq80wwqqwt@",
"qwwweeeewewwwwewO89qqwwqqwqqwqqw9wwwqqqw99+eweewwwwwwqquuqqqqut@",
"qqqqqqqqqeeeweewO99qqqqqwqwqqqwqw99wqwqww9&wq0qwwqwqqww8qqqqqit@",
"qwqqqqqqqqqqqqwqO9qqqewqwqqqqwqq99ewqqqqqw&0qqqqqwqqqqwqqqquqip@",
"qqqqqqqqqqqqqqqqOqwqqqqqqqwqqqwq9w99qwwqqq+9qwwqqqqwwqqwqqqqquf@",
"qq9qqw9wqqqqqq9qO9qqqqwqqqqqqwqqqqqqqwq9wq#qqquqwqqwqqqqwqqqwwf@",
"qq99w99999qqqq99X9qqqwqqqqqwqqq8uqqqqqq9qw#qqqqqqwqqqqqwwqqqqqwm",
"*&*&&&&OOOOO&O&-,699wwwqqq88q888989899666,,#X  XX ..          mm",
",,>>>>>>>>>>>>>>,,,>,,m,,,,,,,,,>>>,>,>,,>,>>>,,,,$. o-4444-. mm",
">>>>>>>>,>>,>>,,>>>>>,,,,,,>,,,,>>,,,>,>,,,,,,,,,,>*X,4444,4- mm",
">>>>>>>>,,>>,>,>>>>>>,>#,,,,,,,,>,,,,,>,,>,,,>>,,,,>O44,34444 mm",
",,>>>>>>>>>>>>>>>>>>>>>#,,,,,,,,,>>,,,,,,,,,,,,,,,,,=44444444 mm",
",>>>>>>>>>>>>>>>>>>>>>>O,,,,,,,,,,,,,,,,,,,,,,>>,,,>&44443443 mm",
",,,6,4,4,,,6,>>>>>>>,,>O,,,,,,,,,,,,,>,>>,,>,,>>,,,,o4444,44-.mm",
"9999q9wqqqqqqqqq99qqqq8#8qqqqqqqqqqqqqqqqqqqqqqqqqqq+4444444;.mm",
"99999qqqqqqqqqqqqqqqq8>&:8qqqqqqqqqqqqqquqqqq888qq0q-44,4,45;.mm",
">,,,>->->>>,>>>>>>>&&&O#O&,,,,,,,,,&&##&##&-:::--49e44444444>.mm",
"weeeq,-,qqqqqqqwqqqeeeewqwewewiuuuuuu,#:0700q0wqqqe,-,444446;.mm",
"99qqw9>9qqqqqqqqqqqqqqqqqqqqqqqq9q88qq=qqq99qqqqwqq4o4444444;.mm",
"9qqq96-9qqqqqqqqqqqqqqqqqqqqqqqqqqquqq=qqqqqqqqqqqq4 44,44641 mm",
"9qqqq9>9qqqqqqqqqqqqqqqqqqqqqqqqqqqqqq,qqqqqqqqqqqq5 4444646; mm",
"q8qq86:8qqqqqqqqqqqqqqqqq8qqqqqqqqqqqq68qqqqqq8w8qq6 4444674> mm",
"qqqq88:8qqqqqqqqqqqqqqqqqqqqqqqqqqqqq8>qq8qqqq8wqq85 4444444; mm",
"qq8886#6qqqqqqqqqqqqqqqqqqw8qqqqqqqqq8>6qqq8q8q8q88p+44467441 mm",
"66886$#:8qqqqqq8qqq8qq88qq8qqq8wqqqq8,>>68q8888688wp04444446- mm",
">::######,,,,3,333,,>1><,133,,,34,3,>,,,1>,1>3>>3qwi44476445; mm",
"wqw8wuuwwuwwq8888q88uq6:388wqqwqwqwwquuuwwqwqqquuuu5 54554554 mm",
"88888888888888888888888:888888888888888888888888qqu4 #@+##@## mm",
"88888888888888888888888-88888888888888888888888888q6 33313331 mm",
"88888888888888888888888:88888888888888888888888899q4 0060050y mm",
"88888888888888888888888:8888888888888888888888889994 666660wy mm",
"88888888888888888888888:8888888888888888888888889904 560060sy.mm",
"88888888888888888888881O8888888888888888888888889904.66040efy.mm",
"6666666666688888888831#O*,88888888q88888888886666667%6660wffy mm",
"3663>:::>,,33331>>,:OOOOOO:::::::::::===-:>:::::,9uu60065sffy.mm",
"u8uuu6>6quuuuuuuuuuuuuuuuuuwuutuuuuww8#:wupuwwwtuuu6-660qfffy mm",
"888888:88888888888888888888888888888q6*898888888wwu4o060pfffy mm",
"888886:8888888888888888888888888888888888888888888w4 77qffffy mm",
"888886:8888888888888888888888888888888888888888888q5 77iffffy mm",
"88888818888888888888888888888888888888888888888888q6 70fffffy mm",
"8888883888888888888888888888888888888888888888888884 7pfffffy mm",
"88888888888888888888888888888888888866@8888888868885Owffffffy mm",
"$-=<13333333338888883333133334884333;@o$38886333334<@fffffffd mm",
"31%%%XoXooXoooO=8;$oooOoooooooooOoooooXOo$6$oooooo$rffffffffg mm",
"ffffgfgffgffgfff5fffffffffffffffffffffffff5ffffsyfffffffffffg mm",
"ffffffffffffffff5sffffffffffffffffffffffff5fffffffffffffffffg mm",
"ffffffffffffffff5fffffffffffffffffffffffff5ffffffffffffffffjg mm",
"jjhhhhhfffffffff5fffffffffffffffffffffffdf5fffffffffffffffjcg mm",
"ffjjjjjjjjjjkzzk5lllllllclllllllkzzzzklzll0llllllllllllxzcccg mm",
"68999999988888861999999988889999999988w89619999988q8999999983 mm",
"8q99999998888886;999999968999999999988889619999q8q99999999989 mm",
"=>,qq9999931==Oo O+=->>99999q999999911=*Oo #=>769999999993189 mm",
"    .OO        .           OOOOo       .                     mmm"
};
