/* XPM */
static char *result[] = {
/* columns rows colors chars-per-pixel */
"64 64 81 1 ",
"  c #4F2713",
". c #532C15",
"X c #532D18",
"o c #563017",
"O c #56311A",
"+ c #59351D",
"@ c #5C381F",
"# c #573521",
"$ c #5B3721",
"% c #5E3B23",
"& c #5C3D2A",
"* c #613E25",
"= c #613E29",
"- c #5D402D",
"; c #5D4330",
": c #5A4E3F",
"> c #634227",
", c #64432B",
"< c #674A2E",
"1 c #69492D",
"2 c #654732",
"3 c #684730",
"4 c #634A36",
"5 c #6A4D31",
"6 c #654C39",
"7 c #694E3A",
"8 c #6F5235",
"9 c #6C513C",
"0 c #705537",
"q c #725539",
"w c #75593C",
"e c #785A3F",
"r c #6A5441",
"t c #6C5944",
"y c #655E4C",
"u c #6D5D49",
"i c #715542",
"p c #745A44",
"a c #7A5E42",
"s c #705D4B",
"d c #7D6246",
"f c #72624F",
"g c #7D634A",
"h c #6A6C5C",
"j c #746451",
"k c #7A6653",
"l c #7E6A56",
"z c #7E6D5B",
"x c #7F705F",
"c c #697C72",
"v c #80664A",
"b c #836A4D",
"n c #866D51",
"m c #816D5B",
"M c #877053",
"N c #897255",
"B c #82715F",
"V c #8D775B",
"C c #8E795C",
"Z c #917A5D",
"A c #827260",
"S c #887666",
"D c #877B6A",
"F c #8C7D6C",
"G c #937E61",
"H c #8F7F70",
"J c #8D806E",
"K c #968065",
"L c #8E8170",
"P c #918374",
"I c #938877",
"U c #938778",
"Y c #968A7B",
"T c #6D8E8A",
"R c #618F91",
"E c #6AAEB7",
"W c #6DB1BB",
"Q c #70B0B8",
"! c #71B7C1",
"~ c #9D9386",
"^ c None",
/* pixels */
"^^^^^^^^^^^^^^^^^^^^^^^^^^^^^^^^^^^^^^^^^^^^^^^^^^^^^^^^^^^^^^^^",
"^^^^^^^^^^^^^^^^^^^^^^^^^^^^^^^^^^^^^^^^^^^^^^^^^^^^^^^^^^^^^^^^",
"^^^^^^^^^^^^^^^^^^^^^^^^^^^^^^^^^^^^^^^^^^^^^^^^^^^^^^^^^^^^^^^^",
"^^^^^^^^^^^^^^^^^^^^^^^^^^^^^^^^^^^^^^^^^^^^^^^^^^^^^^^^^^^^^^^^",
"^^^^^^^^^^^^^^^^^^^^^^^^^^^^^^^^^^^^^^^^^^^^^^^^^^^^^^^^^^^^^^^^",
"^^^^^^^^^^^^^^^^^^^^^^^^^^^^^^^^^^^^^^^^^^^^^^^^^^^^^^^^^^^^^^^^",
"^^^^^^^^^^^^^^^^^^^^^^^^^^^^^^^^^^^^^^^^^^^^^^^^^^^^^^^^^^^^^^^^",
"^^^^^^^^^^^^^^^^^^^^^^^^^^^^^^^^^^^^^^^^^^^^^^^^^^^^^^^^^^^^^^^^",
"^^^^^^^^^^^^^^^^^^^^^^^^^^^^^^^^^^^^^^^^^^^^^^^^^^^^^^^^^^^^^^^^",
"^^^^^^^^^^^^^^^^^^^^^^^^^^^^^^^^^^^^^^^^^^^^^^^^^^^^^^^^^^^^^^^^",
"^^^^^^^^^^^^^^^^^^^^^^^^^^^^^^^^^^^^^^^^^^^^^^^^^^^^^^^^^^^^^^^^",
"^^^^^^^^^^^^^^^^^^^^^^^^^^^^^^^^^^^^^^^^^^^^^^^^^^^^^^^^^^^^^^^^",
"^^^^^^^^^^^^^^^^^^^^^^^^^^^^^^^^^^^^^^^^^^^^^^^^^^^^^^^^^^^^^^^^",
"^^^^^^^^^^^^^^^^^^^^^^^^^^^^^^^^^^^^^^^^^^^^^^^^^^^^^^^^^^^^^^^^",
"^^^^^^^^^^^^^^^^^^^^^^^^^^^^^^^^^^^^^^^^^^^^^^^^^^^^^^^^^^^^^^^^",
"^^^^^^^^^^^^^^^^^^^^^^^^^^^^^^^^^^^^^^^^^^^^^^^^^^^^^^^^^^^^^^^^",
"^^^^^^^^^^^^^^^^^^^^^^^^^^^^^^^^^^^^^^^^^^^^^^^^^^^^^^^^^^^^^^^^",
"^^^^^^^^^^^^^^^^^^^^^^^^^^^^^^^^^^^^^^^^^^^^^^^^^^^^^^^^^^^^^^^^",
"^^^^^^^^^^^^^^^^^^^^^^^^^^^^^^^^^^^^^^^^^^^^^^^^^^^^^^^^^^^^^^^^",
"^^^^^^^^^^^^^^^^^^^^^^^^^^^^^^^^^^^^^^^^^^^^^^^^^^^^^^^^^^^^^^^^",
"^^^^^^^^^^^^^^^^^^^^^^^^^^^^^^^^^^^^^^^^^^^^^^^^^^^^^^^^^^^^^^^^",
"^^^^^^^^^^^^^^^^^^^^^^^^^^^^^^^^^^^^^^^^^^^^^^^^^^^^^^^^^^^^^^^^",
"^^^^^^^^^^^^^^^^^^^^^^^^^^^^^^^^^^^^^^^^^^^^^^^^^^^^^^^^^^^^^^^^",
"^^^^^^^^^^^^^^^^^^^^^^^^^^^^^^^^^^^^^^^^^^^^^^^^^^^^^^^^^^^^^^^^",
"^^^^^^^^^^^^^^^^^^^^^^^^^^^^^^^^^^^^^^^^^^^^^^^^^^^^^^^^^^^^^^^^",
"^^^^^^^^^^^^^^^^****^^^^^^^^^^^^^^^^^^^^^^^^$%$*^^^^^^^^^^^^^^^^",
"^^^^^^^^^^^^^^^kmk=$....o.^^........^^.. ...@%isf^^^^^^^^^^^^^^^",
"^^^^^^^^^^^^^^3kmmp*111115vn011111181ww11188,pzzk^^^^^^^^^^^^^^^",
"^^^^^^^^^^^^^^7mDDm*eeaavvvvnvdvddggwwbvaaaa=iHHA3^^^^^^^^^^^^^^",
"^^^^^^^^^^^^^^3FPUm*vvvvbbeeVnbbbbMVdwbbnvbb2rUUS3^^^^^^^^^^^^^^",
"^^^^^^^^^^^^^^5HYUA*vbNNnZveVVMbbMVVdaVMnnnn=iUUH3^^^^^^^^^^^^^^",
"^^^^^^^^^^^^^^3P~YS*vCCCZZevZVVVCVVCdaVVVVVC3sUYP3^^^^^^^^^^^^^^",
"^^^^^^^^^^^^^^7H~~F*bZZZKKabKKKCCKGKgdVVVVVV,kY~H3^^^^^^^^^^^^^^",
"^^^^^^^^^^^^^^3H~~F*MKKKKKabKKKKKKKKgdKKKKKK,m~~H3^^^^^^^^^^^^^^",
"^^^^^^^^^^^^^^7U~~G*MKKKKKabKKKKKKKKgdKKKKKK=s~~U3^^^^^^^^^^^^^^",
"^^^^^^^^^^^^^^3~~~n*MKKKKKagKKKKKKKKgdKKGKKG,p~~H3^^^^^^^^^^^^^^",
"^^^^^^^^^^^^^^5~~~m*nZZZKKabKKCCCCKKggKKZVZZqi~~Y3^^^^^^^^^^^^^^",
"^^^^^^^^^^^^^^,~~~b*nZZZZZabKCCCCCCZdgKCVCZV7i~~~3^^^^^^^^^^^^^^",
"^^^^^^^^^^^^^^*Y~Um$bZZZZZabKCCCCCKKggZCCVCC8iP~~3^^^^^^^^^^^^^^",
"^^^^^^^^^^^^^^*HYHm=dNbMNMavNNNNNMNNaeMMNNNN3pFY~2^^^^^^^^^^^^^^",
"^^^^^^^^^^^^^^*FHHS>abbnbbddbMMMnnbndebbbbnb3sHF~=^^^^^^^^^^^^^^",
"^^^^^^^^^^^^^^*AHHm*ebbbbba0nbggvvbbe0bbbblb=kHFA=^^^^^^^^^^^^^^",
"^^^^^^^^^^^^^^*lHm%Oeevbbb8+d0waaadb81gggdad,sJJi%^^^^^^^^^^^^^^",
"^^^^^^^^^^^^^^*.....1weedd@..@%@$@%1@o18qqq05fDD=%^^^^^^^^^^^^^^",
"^^^^^^^^^^^^^^*o.............+@:;$@O..o...o..5xxr%^^^^^^^^^^^^^^",
"^^^^^^^^^^^^^^*fAz>.+***@@.o.:EWWR&-..+>15<-.7xxk*^^^^^^^^^^^^^^",
"^^^^^^^^^^^^^^%kxxs.>10ww0>@+:!!!!c<+>55555<o7xxz%^^^^^^^^^^^^^^",
"^^^^^^^^^^^^^^&kxztO>51500>@<:!!!!h<%>851518O2jxk%^^^^^^^^^^^^^^",
"^^^^^^^^^^^^^^*kzf9O-<58<0>*<y!!!!y<>>055555+4jjx#^^^^^^^^^^^^^^",
"^^^^^^^^^^^^^^OkjjtO>55585<*<yQ!!T<<><055555+rffr ^^^^^^^^^^^^^^",
"^^^^^^^^^^^^^^ kjs7O>555<0<*<<<ty<<<><0555<5%7ufr ^^^^^^^^^^^^^^",
"^^^^^^^^^^^^^^ pst6o>55550<@<<<<<<<<@<05555<*6tur ^^^^^^^^^^^^^^",
"^^^^^^^^^^^^^^ rut6O>11550<@<<<<<<<<@>055555$6ttr ^^^^^^^^^^^^^^",
"^^^^^^^^^^^^^^ rt9OO&,5550@@<<<-<<<<@&05<555@7ttr ^^^^^^^^^^^^^^",
"^^^^^^^^^^^^^^ rr..O*%&*>8o.+***%*@+o.<@@@@@$$%#O ^^^^^^^^^^^^^^",
"^^^^^^^^^^^^^^ rft,+XoXOo.....oooo....ooo..+$$$## ^^^^^^^^^^^^^^",
"^^^^^^^^^^^^^^ rfffu rzxAmkklBDDDDJDDj9OX   6jff6 ^^^^^^^^^^^^^^",
"^^^^^^^^^^^^^^ 2fff4 ;ruuuususuuuyutfjzjr4  &fjrX^^^^^^^^^^^^^^^",
"^^^^^^^^^^^^^^^ &2&    X##&;44645;--;#OO#X.  ;4X ^^^^^^^^^^^^^^^",
"^^^^^^^^^^^^^^^^                .             ^^^^^^^^^^^^^^^^^^",
"^^^^^^^^^^^^^^^^^^^^^^^^^^^^^^^^^^^^^^^^^^^^^^^^^^^^^^^^^^^^^^^^",
"^^^^^^^^^^^^^^^^^^^^^^^^^^^^^^^^^^^^^^^^^^^^^^^^^^^^^^^^^^^^^^^^",
"^^^^^^^^^^^^^^^^^^^^^^^^^^^^^^^^^^^^^^^^^^^^^^^^^^^^^^^^^^^^^^^^",
"^^^^^^^^^^^^^^^^^^^^^^^^^^^^^^^^^^^^^^^^^^^^^^^^^^^^^^^^^^^^^^^^"
};
