/* XPM */
static char *_49c5ca198b145a8fa5b5e6e03f6b9bdr6hCfZRHMODZ6wj1[] = {
/* columns rows colors chars-per-pixel */
"64 64 146 2 ",
"   c None",
".  c #512B14",
"X  c #522C14",
"o  c #54311A",
"O  c #5C3B26",
"+  c #5C3C27",
"@  c #5C3F2B",
"#  c #5D3F2C",
"$  c #5D402C",
"%  c #5E4736",
"&  c #60432F",
"*  c #604A38",
"=  c #624C3B",
"-  c #654E3E",
";  c #644F3F",
":  c #5D5147",
">  c #5E5248",
",  c #5F544A",
"<  c #645141",
"1  c #645142",
"2  c #655242",
"3  c #665242",
"4  c #655446",
"5  c #685344",
"6  c #61564D",
"7  c #61574D",
"8  c #67584A",
"9  c #67584B",
"0  c #62584E",
"q  c #63594F",
"w  c #6B5B4E",
"e  c #6A5C4F",
"r  c #635950",
"t  c #645B51",
"y  c #655C53",
"u  c #665D54",
"i  c #675F55",
"p  c #6A5D50",
"a  c #686057",
"s  c #6A6257",
"d  c #6B6257",
"f  c #696258",
"g  c #6A635A",
"h  c #6C6358",
"j  c #6B645A",
"k  c #6B645B",
"l  c #6C6459",
"z  c #6B655C",
"x  c #6D665C",
"c  c #6C665D",
"v  c #6E675C",
"b  c #6F675D",
"n  c #6D675E",
"m  c #6F685D",
"M  c #6F685E",
"N  c #6E685F",
"B  c #736353",
"V  c #756254",
"C  c #756355",
"Z  c #706559",
"A  c #7B695B",
"S  c #7D6C5E",
"D  c #6F6960",
"F  c #706A60",
"G  c #706A61",
"H  c #716B61",
"J  c #706B62",
"K  c #716B62",
"L  c #716C63",
"P  c #726C62",
"I  c #726C63",
"U  c #746C62",
"Y  c #726D64",
"T  c #736D64",
"R  c #736E65",
"E  c #746F64",
"W  c #746E65",
"Q  c #746F66",
"!  c #756F66",
"~  c #757067",
"^  c #7D7467",
"/  c #7E7567",
"(  c #757169",
")  c #77736A",
"_  c #78766D",
"`  c #7B776C",
"'  c #7B766D",
"]  c #7A776F",
"[  c #7D766C",
"{  c #7D786E",
"}  c #7A7870",
"|  c #7B7870",
" . c #7C7871",
".. c #7F7A71",
"X. c #7D7A73",
"o. c #80796B",
"O. c #877A6F",
"+. c #827C72",
"@. c #837E73",
"#. c #837F75",
"$. c #838074",
"%. c #848176",
"&. c #848276",
"*. c #8B8076",
"=. c #878379",
"-. c #868478",
";. c #8B8278",
":. c #88867A",
">. c #89877B",
",. c #88847C",
"<. c #8A877C",
"1. c #8A877E",
"2. c #8A887C",
"3. c #8A887D",
"4. c #8B887D",
"5. c #8B897D",
"6. c #8B897E",
"7. c #8C897E",
"8. c #8C8A7E",
"9. c #8D8A7F",
"0. c #8C8880",
"q. c #8D8A80",
"w. c #8E8A81",
"e. c #8E8B81",
"r. c #8E8C81",
"t. c #8F8C83",
"y. c #908C83",
"u. c #908D83",
"i. c #908E83",
"p. c #908C84",
"a. c #908D84",
"s. c #918E84",
"d. c #918E85",
"f. c #928E86",
"g. c #959289",
"h. c #96938A",
"j. c #96938B",
"k. c #96948B",
"l. c #97948C",
"z. c #98958D",
"x. c #99958D",
"c. c #99968D",
"v. c #98958E",
"b. c #99968F",
"n. c #9A9790",
"m. c #9B9890",
/* pixels */
"                                                                                                                                ",
"                                                                                                                                ",
"                                                                                                                                ",
"                                                                                                                                ",
"                                                                                                                                ",
"                                                                                                                                ",
"                                                                                                                                ",
"                                                                                                                                ",
"                                                                                                                                ",
"                                                                                                                                ",
"                                                                                                                                ",
"                                                                                                                                ",
"                                                                                                                                ",
"                                                                                                                                ",
"                                                                                                                                ",
"                                                                                                                                ",
"                                                                                                                                ",
"                                                                                                                                ",
"                                            # # # # #                             & & &                                         ",
"                                    # # # # # # # # # # # # #               & & & & & & & &                                     ",
"                                y.^ B B B B B B B B B B B B p s           o.^ o.^ ^ o.^ ^ ^ ^                                   ",
"                              ;.l.:.:.:.:.:.:.:.:.:.:.:.:.$.j j j j j j &.:.:.:.:.:.:.:.:.:.>.b.                                ",
"                              S b.:.:.:.:.:.:.:.:.:.:.:.&.x j j j j j F :.:.:.:.:.:.:.:.:.:.:.n.*.                              ",
"                              A b.:.:.:.:.:.:.:.:.:.:.:.$.j j j j j x &.:.:.:.:.:.:.:.:.:.:.:.n.*.                              ",
"                            + A b.:.:.:.:.:.:.:.:.:.:.:.:.&.` E E [ -.:.:.:.:.:.:.:.:.:.:.:.:.n.*.O                             ",
"                            + A b.:.:.:.:.:.:.:.:.:.:.:.:.:.:.:.:.:.:.:.:.:.:.:.:.:.:.:.:.:.:.n.*.O                             ",
"                            + A b.:.:.:.:.:.:.:.:.:.:.:.:.:.:.:.:.:.:.:.:.:.:.:.:.:.:.:.:.:.:.n.O.O                             ",
"                            + A b.:.:.:.:.:.:.:.:.:.:.:.:.:.:.:.:.:.:.:.:.:.:.:.:.:.:.:.:.:.:.n.A O                             ",
"                            + A b.:.:.:.:.:.:.:.:.:.:.:.:.:.:.:.:.:.:.:.:.:.:.:.:.:.:.:.:.:.:.n.A O                             ",
"                            + A b.:.:.:.:.:.:.:.:.:.:.:.:.:.:.:.:.:.:.:.:.:.:.:.:.:.:.:.:.:.:.n.A O                             ",
"                            + A b.:.:.:.:.:.:.:.:.:.:.:.:.:.:.:.:.:.:.:.:.:.:.:.:.:.:.:.:.:.:.n.A O                             ",
"                            + A b.:.:.:.:.:.:.:.:.:.:.:.:.:.:.:.:.:.:.:.:.:.:.:.:.:.:.:.:.:.:.n.A O                             ",
"                            O A b.8.>.-.:.:.:.:.2.-.2.-.2.-.2.-.:.:.:.:.:.:.:.:.:.:.:.:.:.:.:.m.A O                             ",
"                            + A b.a.a.t.8.:.:.:.-.2.-.2.-.2.-.2.:.:.:.:.:.:.:.:.:.:.:.:.:.:.:.b.A O                             ",
"                            O A k.a.a.a.y.t.0.8.2.>.2.2.t.2.2.-.:.:.:.:.:.:.:.:.:.:.>.>.:.>.:.m.A O                             ",
"                            @ A b.a.a.a.a.y.a.a.a.t.a.a.t.2.-.2.:.:.:.:.:.:.:.:.:.:.2.9.8.2.:.m.A O                             ",
"                            + A g.y.y.a.a.a.a.a.a.a.a.a.2.-.2.-.:.:.:.:.:.:.:.:.2.9.s.s.s.s.y.b.A O                             ",
"                            + V b.t.a.a.a.a.a.a.a.a.t.2.2.-.-.2.:.:.:.:.:.:.:.2.y.s.s.s.s.y.y.b.V O                             ",
"                            O 2 j $.a.a.y.a.a.a.a.2.-.:.-.>.-.,.:.:.:.:.:.:.8.y.y.s.s.y.s.s.+.d ; O                             ",
"                            O 2 m N 0.k.k.g.k.k.k.k.k.l.l.l.l.j.k.k.k.k.k.g.k.k.k.k.k.k.k.+.d d 2 O                             ",
"                            @ w m m y.m.m.m.a.8.,.t.a.f.a.p.t.t.y.t.a.a.f.f.t.t.b.m.m.m.[ d d d 9 O                             ",
"                            . 9 m j ;.k. .~ ( E ( ( E F x D D c N x D x D D Q Q Y ] 0.Y d g d d 4 .                             ",
"                            X 2 m m { ) ~ ~ E ( ( Y D c D D c c c c x D c D Y Q Y Q E F h h d g % .                             ",
"                            X * m j E ~ ~ Q ( E D c c c c c c D D D c c c D D D Q Y Q E Y Z d h % .                             ",
"                            X * x Z ( ( ~ ~ ~ E c c D D D c c c c c c c D c c D Y Q Y Q Y Q L g % .                             ",
"                            X * x U ( Q ~ ~ E D D c c c c c D D c D D D D c c D D Y Q Y Q Y Y _ 2 .                             ",
"                            X * Z Q ) Q Q Q D x D c c c f u r 6 , , r i c c c c D D L Y Y Q Y _ 2 .                             ",
"                            . = Y ( Q Q Q F x D c c D D r > > > > > > y c D D c x D D L Q Y Q _ 3 .                             ",
"                            X 5  .( E E E x c D c c c D g g r > > f f g c c c D c c c D D Y Y _ 3 .                             ",
"                            X ;  .Q ( Y x D c D c D c c D g , r , , g c D D c c D D c c D c c } 3 .                             ",
"                            X @  .( Q D D c c c D c D c g u : y u > u c c c D c c c D c D c D } 3 .                             ",
"                            X $  .Q Q F c D D c c c D c , > c c c D > , c D c c c D c c D c c } 3 .                             ",
"                            X $ } ( E E D D D c c D c c 6 : c D c c > , c c D D c c D c c c D } 3 .                             ",
"                            X $  .E ( E D c c c c c D c u y c D D c y f D c c c D c D c D c c } 3 .                             ",
"                            X $ } ( ( Q Q D c D D D c c D c c c c c c D D c c c c D c c D c c } 3 .                             ",
"                            X $ ] ( Q ( Q D c D c c c D c D D c D D c c c c D D c c c D c c D } 3 .                             ",
"                            X $ } ( Q Q D g D c z D z D a 7 , a c c 7 u c c D c c c D D c c c } 3 .                             ",
"                            X $ } ( Y c g g g c D z D z u > > 7 y D , r D c D c D c c c c D D } 3 .                             ",
"                            X $ } D g g g g g c z D z D t > > , > f c D c D c c D c c c c c D } 3 .                             ",
"                            X $ } g g g g g g c D z D D t : , f 7 > f c c c c D c c D D D c c ] w .                             ",
"                            X o ( g g g g g g z z D z D u > 7 D f y > 7 D D c c D c c c c D x } Z .                             ",
"                            X @ ( g g g g g g g D z D z r > f D c D > 7 c c c D c c D c x x N } Z .                             ",
"                            X @ ( g g g g g g g z D z D y > f c c D > , c c c D c D c D D c N } Z .                             ",
"                            X @ ( g g g g g g a D z D z z f z D c c f f D D c c c D c c c D x  .Z .                             "
};
