/* XPM */
static char *result[] = {
/* columns rows colors chars-per-pixel */
"64 64 134 2 ",
"   c #4C2610",
".  c #4D2812",
"X  c #4E2812",
"o  c #502913",
"O  c #502A13",
"+  c #512B14",
"@  c #522C14",
"#  c #583B28",
"$  c #593C2A",
"%  c #5A3C2A",
"&  c #5A3D2A",
"*  c #5B3E2B",
"=  c #5C3F2B",
"-  c #5A3F2D",
";  c #594333",
":  c #5E4330",
">  c #5D4432",
",  c #5A4434",
"<  c #5E4635",
"1  c #5C4636",
"2  c #5D4737",
"3  c #564B3F",
"4  c #604736",
"5  c #624B3B",
"6  c #614D3D",
"7  c #574C41",
"8  c #594D42",
"9  c #5A4F44",
"0  c #5C5046",
"q  c #5C5146",
"w  c #5D5147",
"e  c #5C5247",
"r  c #5D5148",
"t  c #5E5349",
"y  c #5F5349",
"u  c #5F544A",
"i  c #5F554B",
"p  c #645041",
"a  c #655141",
"s  c #655142",
"d  c #645243",
"f  c #665242",
"g  c #655345",
"h  c #60554B",
"j  c #60554C",
"k  c #60564C",
"l  c #61564D",
"z  c #61574D",
"x  c #685648",
"c  c #63584C",
"v  c #62584E",
"b  c #62594F",
"n  c #635950",
"m  c #635A50",
"M  c #635A51",
"N  c #645A51",
"B  c #645B51",
"V  c #645B52",
"C  c #645C52",
"Z  c #655C52",
"A  c #645C53",
"S  c #655C53",
"D  c #655D53",
"F  c #665D53",
"G  c #655D54",
"H  c #665D54",
"J  c #655E54",
"K  c #665E54",
"L  c #665E55",
"P  c #665F55",
"I  c #675F55",
"U  c #665F56",
"Y  c #675F56",
"T  c #6A5E52",
"R  c #6B5E52",
"E  c #676056",
"W  c #676057",
"Q  c #676157",
"!  c #686055",
"~  c #686056",
"^  c #686156",
"/  c #686057",
"(  c #686157",
")  c #6C6155",
"_  c #686158",
"`  c #696158",
"'  c #696258",
"]  c #696259",
"[  c #696359",
"{  c #6A6358",
"}  c #6A6259",
"|  c #6A6359",
" . c #69635A",
".. c #6A635A",
"X. c #6A645A",
"o. c #6B655A",
"O. c #6A645B",
"+. c #6B645B",
"@. c #6B655B",
"#. c #6B655C",
"$. c #6C655C",
"%. c #6C665C",
"&. c #6C665D",
"*. c #6C675D",
"=. c #6E665C",
"-. c #6C675E",
";. c #6D675E",
":. c #6E685E",
">. c #6E685F",
",. c #706559",
"<. c #6E6960",
"1. c #6F6960",
"2. c #6F6A61",
"3. c #706B62",
"4. c #706B63",
"5. c #736E65",
"6. c #726F66",
"7. c #736F66",
"8. c #736F67",
"9. c #737067",
"0. c #747066",
"q. c #757168",
"w. c #747169",
"e. c #757169",
"r. c #747269",
"t. c #75726A",
"y. c #75736A",
"u. c #76746B",
"i. c #77756D",
"p. c #78766E",
"a. c #78766F",
"s. c #797770",
"d. c #7A7870",
"f. c None",
/* pixels */
"f.f.f.f.f.f.f.f.f.f.f.f.f.f.@ = e...............$.;.;.;.;.;.;.;.;.;.;.;.;.;.;.;.;.;.;.;.;.;.4.d.f + f.f.f.f.f.f.f.f.f.f.f.f.f.f.",
"f.f.f.f.f.f.f.f.f.f.f.f.f.f.@ = e...............O.;.;.;.+./ k k k k k k | ;.;.;.;.;.;.;.;.;.4.d.x + f.f.f.f.f.f.f.f.f.f.f.f.f.f.",
"f.f.f.f.f.f.f.f.f.f.f.f.f.f.@ : e.................+.;.;.S w w w w w w q ` ;.;.;.;.;.;.;.;.;.4.d.,.+ f.f.f.f.f.f.f.f.f.f.f.f.f.f.",
"f.f.f.f.f.f.f.f.f.f.f.f.f.f.@ a e...................O.$.` S S S S y w 0 +.;.;.;.;.;.;.;.;.;.4.d.,.+ f.f.f.f.f.f.f.f.f.f.f.f.f.f.",
"f.f.f.f.f.f.f.f.f.f.f.f.f.f.o p e.......................I h 0 0 0 0 w u ;.;.;.;.;.;.;.;.;.;.>.s.4 O f.f.f.f.f.f.f.f.f.f.f.f.f.f.",
"f.f.f.f.f.f.f.f.f.f.f.f.f.f.o p i.......................N w w w w w w S ;.;.;.;.;.;.;.;.;.;.;.s.& O f.f.f.f.f.f.f.f.f.f.f.f.f.f.",
"f.f.f.f.f.f.f.f.f.f.f.f.f.f.o p p.......................N w w ~ ' ' ' +.;.;.;.;.;.;.;.;.;.;.1.s.& O f.f.f.f.f.f.f.f.f.f.f.f.f.f.",
"f.f.f.f.f.f.f.f.f.f.f.f.f.f.o p p.......................N w h w w w w S ;.;.;.;.;.;.;.;.;.;.4.s.& O f.f.f.f.f.f.f.f.f.f.f.f.f.f.",
"f.f.f.f.f.f.f.f.f.f.f.f.f.f.o p p.......................S k Y h h h h V ..&.;.;.;.;.;.;.;.;.4.s.s O f.f.f.f.f.f.f.f.f.f.f.f.f.f.",
"f.f.f.f.f.f.f.f.f.f.f.f.f.f.o p p............................._ _ _ _ _ _ _  .&.;.;.;.;.;.;.4.s.s O f.f.f.f.f.f.f.f.f.f.f.f.f.f.",
"f.f.f.f.f.f.f.f.f.f.f.f.f.f.o p p.........................../ _ G A W _ _ _ _ _ &.;.;.;.;.;.;.a.s O f.f.f.f.f.f.f.f.f.f.f.f.f.f.",
"f.f.f.f.f.f.f.f.f.f.f.f.f.f.o p p.] ....................S k 0 0 0 0 w V _ _ _ _ _ ;.;.;.;.;.;.8.s f.f.f.f.f.f.f.f.f.f.f.f.f.f.f.",
"f.f.f.f.f.f.f.f.f.f.f.f.f.f.o 5 p._ _ ] ................N w w w w w w n _ _ _ _ _ ..;.;.;.;.;.;.=.f.f.f.f.f.f.f.f.f.f.f.f.f.f.f.",
"f.f.f.f.f.f.f.f.f.f.f.f.f.f.o % p._ _ _ _ ] ............N w t >.>.} w n _ _ _ _ _ _ ;.;.;.;.+.H f.f.f.f.f.f.f.f.f.f.f.f.f.f.f.f.",
"f.f.f.f.f.f.f.f.f.f.f.f.f.f.o % t._ _ _ _ _ _ ..........N w m >.F w B Y _ _ _ _ _ _ #.;.;.v 8 8 f.f.f.f.f.f.f.f.f.f.f.f.f.f.f.f.",
"f.f.f.f.f.f.f.f.f.f.f.f.f.f.o % w._ _ _ _ _ _ _ ] ......N w r n z N Y _ _ _ _ _ _ _ ..;.C 8 8 8 f.f.f.f.f.f.f.f.f.f.f.f.f.f.f.f.",
"f.f.f.f.f.f.f.f.f.f.f.f.f.f.o % w._ _ _ _ _ _ _ _ _ _ ] m w 0 w j Y n G _ _ _ _ _ _  .$.9 8 8 8 f.f.f.f.f.f.f.f.f.f.f.f.f.f.f.f.",
"f.f.f.f.f.f.f.f.f.f.f.f.f.f.o % w._ _ _ _ _ _ _ _ _ _ _ n w w v _ G w n _ _ _ _ _ _ ] m 8 8 8 #.) f.f.f.f.f.f.f.f.f.f.f.f.f.f.f.",
"f.f.f.f.f.f.f.f.f.f.f.f.f.f.o % w._ _ _ _ _ _ _ _ _ _ _ Y G G Y _ _ _ _ _ _ _ _ _ _ _ 9 8 8 #.u.> f.f.f.f.f.f.f.f.f.f.f.f.f.f.f.",
"f.f.f.f.f.f.f.f.f.f.f.f.f.f.o % w._ _ _ _ _ _ _ _ _ _ _ _ _ _ _ _ _ _ _ _ _ _ _ _ _ _ _ _ ] r.u.$ f.f.f.f.f.f.f.f.f.f.f.f.f.f.f.",
"f.f.f.f.f.f.f.f.f.f.f.f.f.f.o % w._ _ _ _ _ _ _ _ _ _ _ _ _ _ _ _ _ _ _ _ _ _ _ _ _ _ _ _ _ -.u.# f.f.f.f.f.f.f.f.f.f.f.f.f.f.f.",
"f.f.f.f.f.f.f.f.f.f.f.f.f.f.o % w._ _ _ _ _ _ _ _ _ _ _ _ L h h h h L _ _ _ _ _ _ _ _ _ _ _ _ u.# f.f.f.f.f.f.f.f.f.f.f.f.f.f.f.",
"f.f.f.f.f.f.f.f.f.f.f.f.f.f.f.% w._ _ _ _ _ _ _ _ _ _ _ Y M w w w w V L _ _ _ _ _ _ _ _ _ _ _ 9.# X f.f.f.f.f.f.f.f.f.f.f.f.f.f.",
"f.f.f.f.f.f.f.f.f.f.f.f.f.f.f.* w._ _ _ _ _ _ _ _ _ _ _ n w Y &.&.&.w h _ _ _ _ _ _ _ _ _ _ _ 7.# X f.f.f.f.f.f.f.f.f.f.f.f.f.f.",
"f.f.f.f.f.f.f.f.f.f.f.f.f.f.f.p w._ _ _ _ _ _ _ _ _ _ _ n w E l w &.w h _ _ _ _ _ _ _ _ _ _ _ 7.# X f.f.f.f.f.f.f.f.f.f.f.f.f.f.",
"f.f.f.f.f.f.f.f.f.f.f.f.f.f.f.f.<._ _ _ _ _ _ _ _ _ _ _ n w E N l &.w h _ _ _ _ _ _ _ _ _ _ _ u.# X f.f.f.f.f.f.f.f.f.f.f.f.f.f.",
"f.f.f.f.f.f.f.f.f.f.f.f.f.f.f.f.3 7 e D _ _ _ _ _ _ _ _ n w Z _ _ _ w h _ _ _ _ _ _ _ _ _ _ _ u.# X f.f.f.f.f.f.f.f.f.f.f.f.f.f.",
"f.f.f.f.f.f.f.f.f.f.f.f.f.f.f.3 3 3 3 7 D _ _ _ _ _ _ _ ( S w w w w K E E W W ( ( _ _ _ _ _ _ u.# X f.f.f.f.f.f.f.f.f.f.f.f.f.f.",
"f.f.f.f.f.f.f.f.f.f.f.f.f.f.f.c K K K K ( .._ _ _ W E P P D v v v v D P P P P P P P P U E E W u.# X f.f.f.f.f.f.f.f.f.f.f.f.f.f.",
"f.f.f.f.f.f.f.f.f.f.f.f.f.f.f.d q.q.q.q.q.@.E U P P P P P P P P P P P P P P P P P P P P P P P u.# X f.f.f.f.f.f.f.f.f.f.f.f.f.f.",
"f.f.f.f.f.f.f.f.f.f.f.f.f.f.f.6 q.q.q.2.X.E P P P P P P m i i m P P i m P P P P P P P P P P P u.# X f.f.f.f.f.f.f.f.f.f.f.f.f.f.",
"f.f.f.f.f.f.f.f.f.f.f.f.f.f.. 6 q.q.:.@.P P P P P P P P v w w h b v w v P P P P P P P P P P P u.# X f.f.f.f.f.f.f.f.f.f.f.f.f.f.",
"f.f.f.f.f.f.f.f.f.f.f.f.f.f.. 6 q.3.@.@.Q P P P P P P P v w K z w w C P P P P P P P P P P P P u.# X f.f.f.f.f.f.f.f.f.f.f.f.f.f.",
"f.f.f.f.f.f.f.f.f.f.f.f.f.f.. 6 q.*.@.@.' P P P P P P P v w ^ o.{ I J P P P P P P P P P P P P u.# X f.f.f.f.f.f.f.f.f.f.f.f.f.f.",
"f.f.f.f.f.f.f.f.f.f.f.f.f.f.. 6 0.@.@.@.X.P P P P P P P v w D ! F m D P P P P P P P P P P P P u.# X f.f.f.f.f.f.f.f.f.f.f.f.f.f.",
"f.f.f.f.f.f.f.f.f.f.f.f.f.f.. 6 5.@.@.@.@.( P P P P P P v w k t w w b D P P P P P P P P P P P u.# X f.f.f.f.f.f.f.f.f.f.f.f.f.f.",
"f.f.f.f.f.f.f.f.f.f.f.f.f.f.. 6 7.@.@.@.@.X.P P P P P P v w w v P P w v P P P P P P P P P P P u.# X f.f.f.f.f.f.f.f.f.f.f.f.f.f.",
"f.f.f.f.f.f.f.f.f.f.f.f.f.f.. 6 q.@.@.@.@.@.' P P P P P D C C D P P C D P P P P P P P P P P P u.# X f.f.f.f.f.f.f.f.f.f.f.f.f.f.",
"f.f.f.f.f.f.f.f.f.f.f.f.f.f.. 6 q.%.@.@.@.@.@.E P P P P P P P P P P P P P P P P P P P P P P P y.# X f.f.f.f.f.f.f.f.f.f.f.f.f.f.",
"f.f.f.f.f.f.f.f.f.f.f.f.f.f.. 6 q.:.@.@.@.@.@.X.P P P P P P P P P P P P P P P P P P P P P P P 6.# f.f.f.f.f.f.f.f.f.f.f.f.f.f.f.",
"f.f.f.f.f.f.f.f.f.f.f.f.f.f.. 6 q.:.@.@.@.@.@.@.[ P P P P P P P P P P P P P P P P P P P P P P 6.# f.f.f.f.f.f.f.f.f.f.f.f.f.f.f.",
"f.f.f.f.f.f.f.f.f.f.f.f.f.f.f.6 q.:.@.@.@.@.@.@.@.( P P P P P P P P P P P P P P P P P P P P P 6.# f.f.f.f.f.f.f.f.f.f.f.f.f.f.f.",
"f.f.f.f.f.f.f.f.f.f.f.f.f.f.f.6 q.:.@.@.@.@.@.@.@.@.P P P P P P P P P P P P P P P P P P P P P 6.- f.f.f.f.f.f.f.f.f.f.f.f.f.f.f.",
"f.f.f.f.f.f.f.f.f.f.f.f.f.f.f.g R 2 1 1 1 1 1 1 1 1 , ; ; ; ; ; ; ; ; ; ; ; ; ; ; ; ; ; ; ; ; T < f.f.f.f.f.f.f.f.f.f.f.f.f.f.f.",
"f.f.f.f.f.f.f.f.f.f.f.f.f.f.f.f.                                                            f.f.f.f.f.f.f.f.f.f.f.f.f.f.f.f.f.f.",
"f.f.f.f.f.f.f.f.f.f.f.f.f.f.f.f.f.f.f.f.f.f.f.f.f.f.f.f.f.f.f.f.f.f.f.f.f.f.f.f.f.f.f.f.f.f.f.f.f.f.f.f.f.f.f.f.f.f.f.f.f.f.f.f.",
"f.f.f.f.f.f.f.f.f.f.f.f.f.f.f.f.f.f.f.f.f.f.f.f.f.f.f.f.f.f.f.f.f.f.f.f.f.f.f.f.f.f.f.f.f.f.f.f.f.f.f.f.f.f.f.f.f.f.f.f.f.f.f.f.",
"f.f.f.f.f.f.f.f.f.f.f.f.f.f.f.f.f.f.f.f.f.f.f.f.f.f.f.f.f.f.f.f.f.f.f.f.f.f.f.f.f.f.f.f.f.f.f.f.f.f.f.f.f.f.f.f.f.f.f.f.f.f.f.f.",
"f.f.f.f.f.f.f.f.f.f.f.f.f.f.f.f.f.f.f.f.f.f.f.f.f.f.f.f.f.f.f.f.f.f.f.f.f.f.f.f.f.f.f.f.f.f.f.f.f.f.f.f.f.f.f.f.f.f.f.f.f.f.f.f.",
"f.f.f.f.f.f.f.f.f.f.f.f.f.f.f.f.f.f.f.f.f.f.f.f.f.f.f.f.f.f.f.f.f.f.f.f.f.f.f.f.f.f.f.f.f.f.f.f.f.f.f.f.f.f.f.f.f.f.f.f.f.f.f.f.",
"f.f.f.f.f.f.f.f.f.f.f.f.f.f.f.f.f.f.f.f.f.f.f.f.f.f.f.f.f.f.f.f.f.f.f.f.f.f.f.f.f.f.f.f.f.f.f.f.f.f.f.f.f.f.f.f.f.f.f.f.f.f.f.f.",
"f.f.f.f.f.f.f.f.f.f.f.f.f.f.f.f.f.f.f.f.f.f.f.f.f.f.f.f.f.f.f.f.f.f.f.f.f.f.f.f.f.f.f.f.f.f.f.f.f.f.f.f.f.f.f.f.f.f.f.f.f.f.f.f.",
"f.f.f.f.f.f.f.f.f.f.f.f.f.f.f.f.f.f.f.f.f.f.f.f.f.f.f.f.f.f.f.f.f.f.f.f.f.f.f.f.f.f.f.f.f.f.f.f.f.f.f.f.f.f.f.f.f.f.f.f.f.f.f.f.",
"f.f.f.f.f.f.f.f.f.f.f.f.f.f.f.f.f.f.f.f.f.f.f.f.f.f.f.f.f.f.f.f.f.f.f.f.f.f.f.f.f.f.f.f.f.f.f.f.f.f.f.f.f.f.f.f.f.f.f.f.f.f.f.f.",
"f.f.f.f.f.f.f.f.f.f.f.f.f.f.f.f.f.f.f.f.f.f.f.f.f.f.f.f.f.f.f.f.f.f.f.f.f.f.f.f.f.f.f.f.f.f.f.f.f.f.f.f.f.f.f.f.f.f.f.f.f.f.f.f.",
"f.f.f.f.f.f.f.f.f.f.f.f.f.f.f.f.f.f.f.f.f.f.f.f.f.f.f.f.f.f.f.f.f.f.f.f.f.f.f.f.f.f.f.f.f.f.f.f.f.f.f.f.f.f.f.f.f.f.f.f.f.f.f.f.",
"f.f.f.f.f.f.f.f.f.f.f.f.f.f.f.f.f.f.f.f.f.f.f.f.f.f.f.f.f.f.f.f.f.f.f.f.f.f.f.f.f.f.f.f.f.f.f.f.f.f.f.f.f.f.f.f.f.f.f.f.f.f.f.f.",
"f.f.f.f.f.f.f.f.f.f.f.f.f.f.f.f.f.f.f.f.f.f.f.f.f.f.f.f.f.f.f.f.f.f.f.f.f.f.f.f.f.f.f.f.f.f.f.f.f.f.f.f.f.f.f.f.f.f.f.f.f.f.f.f.",
"f.f.f.f.f.f.f.f.f.f.f.f.f.f.f.f.f.f.f.f.f.f.f.f.f.f.f.f.f.f.f.f.f.f.f.f.f.f.f.f.f.f.f.f.f.f.f.f.f.f.f.f.f.f.f.f.f.f.f.f.f.f.f.f.",
"f.f.f.f.f.f.f.f.f.f.f.f.f.f.f.f.f.f.f.f.f.f.f.f.f.f.f.f.f.f.f.f.f.f.f.f.f.f.f.f.f.f.f.f.f.f.f.f.f.f.f.f.f.f.f.f.f.f.f.f.f.f.f.f.",
"f.f.f.f.f.f.f.f.f.f.f.f.f.f.f.f.f.f.f.f.f.f.f.f.f.f.f.f.f.f.f.f.f.f.f.f.f.f.f.f.f.f.f.f.f.f.f.f.f.f.f.f.f.f.f.f.f.f.f.f.f.f.f.f.",
"f.f.f.f.f.f.f.f.f.f.f.f.f.f.f.f.f.f.f.f.f.f.f.f.f.f.f.f.f.f.f.f.f.f.f.f.f.f.f.f.f.f.f.f.f.f.f.f.f.f.f.f.f.f.f.f.f.f.f.f.f.f.f.f.",
"f.f.f.f.f.f.f.f.f.f.f.f.f.f.f.f.f.f.f.f.f.f.f.f.f.f.f.f.f.f.f.f.f.f.f.f.f.f.f.f.f.f.f.f.f.f.f.f.f.f.f.f.f.f.f.f.f.f.f.f.f.f.f.f.",
"f.f.f.f.f.f.f.f.f.f.f.f.f.f.f.f.f.f.f.f.f.f.f.f.f.f.f.f.f.f.f.f.f.f.f.f.f.f.f.f.f.f.f.f.f.f.f.f.f.f.f.f.f.f.f.f.f.f.f.f.f.f.f.f."
};
