/* XPM */
static char *_d748a5a503f4513d587ab080e0ba066XN5BV3T2FL8Agtti[] = {
/* columns rows colors chars-per-pixel */
"64 64 77 1 ",
"  c #6B711A",
". c #6C7119",
"X c #6E7319",
"o c #6F7319",
"O c #6D721A",
"+ c #6D731B",
"@ c #6E721A",
"# c #6E731A",
"$ c #6F731A",
"% c #6E721B",
"& c #6E731B",
"* c #6F731B",
"= c #6F741A",
"- c #6F741B",
"; c #6D731C",
": c #6E731C",
"> c #6F741C",
", c #70731A",
"< c #70731B",
"1 c #70741A",
"2 c #71741A",
"3 c #70741B",
"4 c #71741B",
"5 c #71751B",
"6 c #72751B",
"7 c #72761B",
"8 c #73761B",
"9 c #70741C",
"0 c #71741C",
"q c #71751C",
"w c #70741D",
"e c #70751D",
"r c #71751D",
"t c #72751C",
"y c #71761C",
"u c #72761C",
"i c #73761C",
"p c #72761D",
"a c #73761D",
"s c #72771D",
"d c #73771D",
"f c #72761E",
"g c #72771E",
"h c #73771E",
"j c #73771F",
"k c #74771C",
"l c #74771D",
"z c #75771D",
"x c #74771E",
"c c #74781D",
"v c #75781D",
"b c #74781E",
"n c #75781E",
"m c #75791E",
"M c #74781F",
"N c #75781F",
"B c #75791F",
"V c #76791E",
"C c #76791F",
"Z c #777A1E",
"A c #767A1F",
"S c #777A1F",
"D c #777B1F",
"F c #787A1F",
"G c #757920",
"H c #767920",
"J c #767A20",
"K c #777A20",
"L c #777A21",
"P c #777B21",
"I c #787B20",
"U c #797B20",
"Y c #787B21",
"T c #797C20",
"R c #797C21",
"E c #797C22",
"W c #7A7D22",
/* pixels */
"6666666666666666666666666666666666666666666666666666666666666666",
"6666666666666666666666666666666666666666666666666666666666666666",
"666666666666666666ii666666666666666666666666Nli66666666666666666",
"6666666666666666666ii66666666666666666666666ki966666666666666666",
"6666666666666666i6iiN6666666666666666666666666666666666666666666",
"6666666666666666iiJJOEE66666666666666666666666666666666666666666",
"6666666666666666iJiiNbi66666666666666ii6666666666666666666666666",
"6666666666666666i>i-O-666666666666NEiJi666666666666666ii66666666",
"6666666666666666666N666666666666666bJll66666666666666iN666666666",
"6666666666666666666-666666666666666-OO66666666666666ENi666666666",
"6666666666666666666666666666666666666666666666666666i>O666666666",
"66666666666666666666666666666666666666666666666666666-6666666666",
"66666666666666666666666666666666666666666666666666666666666NlkF6",
"66666666666666666666666666666666666666666666666666666666666JYNF6",
"666666666666666666666666666666666666666666666666666666666666NNi6",
"666666666666666666666666666666666666666666666666666666666666OO66",
"6666666666666666666666666666666666666666666666666666666666666666",
"6666666666666666666666666666666666666666666666666666666666666666",
"6666666666666666666666666666666666666666666666666666666666666666",
"6666666666666666666666666666666666666666666ll6666666666666666666",
"66666666666666666666666666l6Nk666666666666ilJJJi6666666666666666",
"6666666666666666666666666iYE6NNN6666666666lJ;b:<6666666666666666",
"66666i666666666666666666iOiG-N:i666666666666iiO66666666666666666",
"66NYiNii6666666666666666ii>ii-O666666666666<i66666b6NN6666666666",
"66NiJ>Ji66666666666666666666<666666666666666666666iJN66666666666",
"66ii iO>666666666666666666666666666666666666666666->>66666666666",
"66i>O66666666666666666666666666666666666666666666666666666666666",
"666i666666666666666666666666666666666666666666666666666666666N66",
"666666666666666666666666666666666666666666666666666666666666Ni66",
"666666666666666666FEi6Ni666666666666666666666666666666666666-666",
"666666666666666666-OiEJi6666666666666666666666666666666666666666",
"6666666666666666666OiPii6666666666666666666666666666666666666666",
"666666666666666666666.666666666666666666666666666666666666666666",
"6666666666666666666666666666666666666666666666666666666666666666",
"6666666666666666666666kN6666666666666666666666666666666666666666",
"66666666666666666666666EN666666666666666666666666666666666666666",
"66666666666666666666666-6NNk6666666666666666666666666666666NNNN6",
"666666666NNiNi6666666666b-666666666666666666666666666666666-6i-6",
"6666666666NNii666666666666666666666666666k6666666666666666666-66",
"6666666666 -66666666666666666N6666666666kDkN66666666666666666666",
"6666666666O66666666666666666kD66666666kNk6ED66666666666666666666",
"6666666666666666666666666666b>666666666bNkbN66666666666666666666",
"6666666666666666666666666666-6b66666666--6-666666666666666666666",
"6666666666666666666k6666666666-666666666666666666666666666666666",
"6666666666666666iiJJNNb66666666666666666666666666666666666666666",
"66666666666666666iiJ-i-66666666666kN6666666666666666666666666666",
"666666666666666666-6666666666666666NN666666666666666666666666666",
"6666666666666666666666666666666666666666666666666666666666666666",
"6666666666666666666666666666666666666666666666666666666666666666",
"6666666666666666666666666666666666666666666666666666666666666666",
"6666666666666666666666666666666666666666666666666666666666666666",
"66Nl6666666666666N6666666666666666666666666666666666666666666666",
"666b66666666666666DNkk66666666666666666666666Dk66666666666666666",
"66N-666666666666666DN66666kNkb66666666666666kN666666666666666666",
"6666666666666666662-66666kN6DN666666666666666666666666666666k666",
"6666666666666666666666666kkkbb6666666666666666666666666666k6NFD6",
"66666666666666666666666666-66-66666666666666666666666666666NbNb6",
"66666666666666666666666k666666666666666666666666666666666666N-D6",
"66kk66kk666666666666666NDk666666666kk666666666666666666k6666-666",
"66kDNNk666666kN666666666-6666666666DNND6666666666666666NEN666666",
"66kDXk-6666666-6666666666666666666kN6b-66666666666666666XX666666",
"666k6666D6kk66666DDkN666666666ND66666666666666666666666666666666",
"66666666kDN666666-kN66666666DbN666666666666666666666666666666666",
"6666666666X6666666-666666666Dk-666666666666666666666666666666666"
};
