/* XPM */
static char *_c6d4e06e1ed4367e2740afdad8c1d24lLptotcPi3MMXIr1[] = {
/* columns rows colors chars-per-pixel */
"64 64 86 1 ",
"  c None",
". c #4F2913",
"X c #522F19",
"o c #53301B",
"O c #563723",
"+ c #583622",
"@ c #593A26",
"# c #5B3C29",
"$ c #5B412F",
"% c #5D402D",
"& c #5E412E",
"* c #5F412F",
"= c #5E4230",
"- c #5E4532",
"; c #604633",
": c #614634",
"> c #624735",
", c #614B3A",
"< c #654B3A",
"1 c #644C39",
"2 c #664C3B",
"3 c #675140",
"4 c #665241",
"5 c #645242",
"6 c #665545",
"7 c #655647",
"8 c #695242",
"9 c #6B5746",
"0 c #6B5747",
"q c #6D5748",
"w c #68594A",
"e c #6A5C4C",
"r c #6E5C4C",
"t c #6E5D4C",
"y c #6F5D4D",
"u c #705B4D",
"i c #705C4E",
"p c #6A6053",
"a c #6C6255",
"s c #6E6355",
"d c #6E6456",
"f c #6F6558",
"g c #716353",
"h c #746254",
"j c #716557",
"k c #78675A",
"l c #756859",
"z c #766A5B",
"x c #776A5B",
"c c #7A6B5E",
"v c #7B6C60",
"b c #787065",
"n c #797264",
"m c #787366",
"M c #797367",
"N c #7D7064",
"B c #7E7166",
"V c #7C7466",
"C c #7A7468",
"Z c #7B7569",
"A c #7C7668",
"S c #7C776B",
"D c #7E776A",
"F c #7E786B",
"G c #82776C",
"H c #807D71",
"J c #837F73",
"K c #867D73",
"L c #848276",
"P c #858377",
"I c #868579",
"U c #88877B",
"Y c #89877C",
"T c #8D877F",
"R c #8A887E",
"E c #8A897F",
"W c #8B8A80",
"Q c #8C8B81",
"! c #8D8C82",
"~ c #8F8D84",
"^ c #908B84",
"/ c #908D85",
"( c #908E85",
") c #918F87",
"_ c #93918A",
"` c #94928B",
/* pixels */
"                                                        3IIIIR`#",
"                                                        9IIIIR`#",
"                                                       .9IIIIR`#",
"                                                       .9IIIIR`#",
"                                                       .9IIIIR`#",
"                                                       .%IIIIR/#",
"                                                       .@IIIIQK#",
"                                                       ..JIII~K#",
"                                                       ..gIII_K#",
"                                                       ..-mmC`k#",
"                                                       ..7ppph>#",
"                                                       .Opppay##",
"                                                       .OpppmR2#",
"                                                       ..$dmIRi#",
"                                                       ..%IIIRv#",
"                                                       ..VIIIRK#",
"                                                       .@IIIIQ`#",
"                                                       .3IIII!`>",
"                                                       .9IIIIQ`8",
"                                                       .9IIIIR`8",
"                                                       .9IIIIR`8",
"                                                       .9IIIIR`8",
"                                                       .#IIIPT`%",
"                                                       .%IIIIQQ#",
"                                                       .%IIII/k#",
"                                                       .%WRR__>#",
"                                                       .o/```r##",
"                                                       ..v/QUz##",
"                                                       ..zIIIR>#",
"                                                       ..IIIIT0#",
"                                                       .#IIIIRk#",
"                                                       .2IIIIRK#",
"                                                       .9IIIIR/#",
"                                                       .9IIII!`=",
"                                                       .9IIII!`8",
"                                                       .9IIIIR`8",
"                                                        0IIIIR`8",
"                                                        ;IIIIR`8",
"                                                        %IIIIR`>",
"                                                        %IIIIRT#",
"                                                        %IIII/c#",
"                                                        %IIR!`2#",
"                                                        +````N##",
"                                                        .B`!Rt##",
"                                                        .zIIIR8#",
"                                                        .LIIIRG#",
"                                                        %IIIIR_#",
"                                                        1IIIIR`#",
"                                                        9IIIIR`#",
"                                                        9IIIIR`#",
"                                                        9IIIIR`#",
"                                                        9IIIIRK#",
"                                                        0IIIIRK#",
"                                                        8IIIPmm#",
"                                                        #IIISff#",
"                                                        %IIPZff#",
"                                                        #IIICff#",
"                                                        .IIIJff#",
"                                                        .JIFewa#",
"                                                        .X35555#",
"                                                        .yVj75,@",
"                                                        2IIIPn=#",
"                                                        9IIIII0#",
"                                                       .1IIIIIF#"
};
