/* XPM */
static char *c54c556563fb4abf9e5cc6733078ab99YlVuuORrgq5GG8WC[] = {
/* columns rows colors chars-per-pixel */
"64 64 133 2 ",
"   c None",
".  c #4F2913",
"X  c #502C17",
"o  c #512F1A",
"O  c #51311D",
"+  c #4D2F20",
"@  c #4F3324",
"#  c #533522",
"$  c #553927",
"%  c #5A3B27",
"&  c #553B2C",
"*  c #5B3C29",
"=  c #533E33",
"-  c #593F30",
";  c #5C402D",
":  c #554135",
">  c #5A4434",
",  c #56463C",
"<  c #5C4739",
"1  c #57483F",
"2  c #5C4A3C",
"3  c #604533",
"4  c #624936",
"5  c #644E3D",
"6  c #574840",
"7  c #5C4D43",
"8  c #5A4E48",
"9  c #5C5247",
"0  c #5D534C",
"q  c #5F5650",
"w  c #604E41",
"e  c #625245",
"r  c #695343",
"t  c #61554B",
"y  c #6B5749",
"u  c #62584E",
"i  c #6E5B4C",
"p  c #705C4E",
"a  c #605751",
"s  c #645B52",
"d  c #685E52",
"f  c #665F58",
"g  c #715E50",
"h  c #666057",
"j  c #6C6255",
"k  c #676159",
"l  c #6A635A",
"z  c #68625A",
"x  c #69645B",
"c  c #6A645C",
"v  c #6A655C",
"b  c #6B655C",
"n  c #6B665D",
"m  c #6B675D",
"M  c #6B665E",
"N  c #6C665E",
"B  c #6C675E",
"V  c #6A645C",
"C  c #6C685E",
"Z  c #6D685F",
"A  c #6D695F",
"S  c #6E695F",
"D  c #706050",
"F  c #746356",
"G  c #746356",
"H  c #74675A",
"J  c #76675B",
"K  c #70665A",
"L  c #76685A",
"P  c #76695A",
"I  c #75695B",
"U  c #786A5F",
"Y  c #786E5F",
"T  c #78695D",
"R  c #6E6A60",
"E  c #6E6960",
"W  c #716C61",
"Q  c #7C6F63",
"!  c #7C6F63",
"~  c #7B7365",
"^  c #7D7266",
"/  c #767469",
"(  c #7F756B",
")  c #7E776A",
"_  c #7E776B",
"`  c #7D776A",
"'  c #7F786C",
"]  c #7F796C",
"[  c #7E7C72",
"{  c #83796F",
"}  c #817C6F",
"|  c #847B71",
" . c #857D74",
".. c #857E75",
"X. c #867E75",
"o. c #847C71",
"O. c #838074",
"+. c #838175",
"@. c #858277",
"#. c #838074",
"$. c #878078",
"%. c #868579",
"&. c #87857A",
"*. c #87867A",
"=. c #868579",
"-. c #88847B",
";. c #88877B",
":. c #88877C",
">. c #89877C",
",. c #89877D",
"<. c #8C867E",
"1. c #8D877F",
"2. c #8A877C",
"3. c #8A887E",
"4. c #8A897E",
"5. c #8A887E",
"6. c #8A8780",
"7. c #8A8880",
"8. c #8B8880",
"9. c #8C8A81",
"0. c #8C8B81",
"q. c #8C8A82",
"w. c #8D8B83",
"e. c #8E8B84",
"r. c #8F8D84",
"t. c #8D8B81",
"y. c #918D85",
"u. c #908E85",
"i. c #908D86",
"p. c #918F87",
"a. c #93918A",
"s. c #94928B",
"d. c #94928B",
/* pixels */
"    % % % % % % % ; 5 5 5 5 5 5 5 5 ; % % % % % % % % % % ; 5 5 5 5 5 5 5 5 5 5 ; & % % % % % % % ; 5 5 5 3 % % % ; 5 4 % % % % ",
"  %.%.%.%.%.%.%.%.%.%.%.-.=.=.=.%.%.=.=.#.~ L i D Y ~ =.%.%.-.=.=.=.=.=.=.=.%.%.%.%.=.=.=.=.=.=.=.=.=.=.%.%.{ 5 5 =.%.%.=.=.=.=.",
"5 %.%.%.%.%.%.%.%.%.%.%.=.=.=.=.%.%.%.%.=.=.=.=.=.=.=.=.-.%.%.-.=.=.=.=.%.%.%.%.%.%.%.%.=.=.=.=.=.=.=.=.%.%.%.%.@.%.%.%.=.=.=.=.",
"5 %.%.%.%.%.%.%.%.%.%.4.<.4.4.4.4.-.%.%.=.=.} i 4.4.4.;.:.4.4.:.4.4.4.<.4.<.4.4.4.7.:.7.4.4.4.4.4.4.1.;.0.:.6.:.1.4.%.%.=.=.=.=.",
"* -.=.=.=.=.+.0.y.d.d.d.d.d.d.1.6.6.6.6.4.1.H L 1.4.8.8.8.8.8.8.8.8.8.8.4.1.8.8.q.d.d.d.s.s.a.a.d.d.d.d.d.d.a.a.0.6.8.6.1.4.8.i.",
"* %.=.=.=.=.' 4 0 B C B C B B B B B B B C C u 5 R R R R R R R R R R R R I C R R R R R R R E E E I C E E R R E 5 e V B m m m m m ",
"* =.=.=.=.%. .< 0 k B B B B B B B B B B C C j 2 R R R R R R R R R R R R R R R R R R E E R R E E E E E m E m m 2 e B V B m m m m ",
"* =.=.=.=.y. .< 0 s B B B B B B B B B B B B u 5 R R R R R R R R R R R R R R R R C E E E x E x E m m m m m m m 2 e B B B V B V m ",
"* ;.%.-.i.d.| < 0 s B B B B B B B B B B B B d 5 R R R R R R W C R R R C E m E m m z E z x E x x m V m m V m E 4 e E V B B m V B ",
"* 1.s.d.d.i.r 4 0 0 B C B B B B B B B B B B d 2 R R R R R R C C C C m B E z z m V E x E E x x E V E V m E m V 2 e B m m V B m m ",
"* p a.i.0._ > < 0 0 x C B B B B B B B B B B d 5 R C B B C m C m B V m m z E m V E z m m E x x E E V m V V m E 2 e B m m V B V B ",
"* i %.%.%.:.I < t q h m B B B B B B B B B B d 4 B B m m m m x m m m m m E V m m z E V m x E x z m m V E V m E 4 e m V m B B V m ",
"* ) =.=.%.:...< 0 0 s C B C C B B B B B B B s 5 m m m m x m m m V B m m V E E m E x E x E x x E V E V m m m V & 2 z z z l V V V ",
"* -.=.=.%.:.w.& q 0 0 x k k k x B C B B B C d 4 V V V V m x x x m V V m V V z m x x x x x x E x m V V V m m V & 2 z f z h V V f ",
"4 =.=.=.%.;.r.& 0 0 t h h h h h h h l x B B s w h h l f h z h z f h h z f z h f z z f k z k k k z h h z h h l & 2 V z z z z h V ",
"5 =.=.=.%.;.r.; 0 0 0 s h h h h h h h f f l s 2 z V h h z h z z l f l h h z z z z k k k z k k k z z f z l h h & 2 l z z z z z z ",
"5 -.=.=.=.4.$.# 9 9 q u h h h h h h h h h h > o s h h x k k x z h z z z x h h h z z z z h z z z f z z z z z z ; < z x z z z z z ",
"5 *.=.=.=.4.{ O : 9 9 q u h h s h h h 5 9 > X . ; 5 9 9 9 9 9 9 e t 9 u 9 t 9 9 e e 9 t e e 9 e 9 e t 9 t 9 9 > > 9 9 9 t t t u ",
"5 =.=.=.=.;.{ O # # @ @ ; : ; : ; : : : ; # O O @ O @ @ # O O o O O O # O # @ @ O # @ O O # @ @ O # # # @ @ , 9 9 2 ; X . X . X ",
"5 =.=.=.=.%.{ O # > 1 9 9 9 1 9 9 9 1 2 1 9 9 9 9 9 9 9 9 9 > : 9 9 9 9 9 9 9 9 9 9 9 9 9 9 9 9 0 9 9 8 9 9 9 9 9 9 9 9 > X . O ",
"3 %.%.%.=.-._ O , 9 9 9 9 9 9 9 9 9 9 9 9 9 9 9 9 9 9 9 9 9 : & 9 9 9 9 9 9 9 0 9 9 9 9 9 9 9 9 9 9 9 9 9 9 9 9 9 9 9 9 9 2 . : ",
"* %.%.%.=.%.{ # 9 9 9 9 9 9 9 9 9 9 9 9 9 9 9 9 9 9 9 9 9 9 : : 9 9 9 9 9 9 9 0 9 9 9 9 9 9 8 9 9 9 9 9 9 9 9 9 9 9 9 9 9 9 O > ",
"* %.%.%.%.-._ # 9 9 9 9 9 9 9 9 9 9 9 9 9 9 9 9 9 9 9 9 9 9 : & 9 9 9 9 9 9 9 9 9 9 9 9 9 0 9 9 9 9 9 9 9 9 9 9 9 9 9 9 9 9 : > ",
"* %.%.%.%.0._ & 9 9 9 9 9 9 9 9 9 9 9 9 9 9 9 9 9 9 9 9 9 9 : & 9 9 9 9 9 9 9 9 9 9 9 9 9 9 9 9 9 9 9 8 9 9 9 9 9 9 9 9 9 9 $ 2 ",
"* 4.-.4.0.e.U & 9 9 9 9 9 9 9 q s s q s u u u u s a a a s s 2 : s s u u u u u u s u s s u s s u s s u s s s q s a u s u s s : > ",
"* p 0.0.-.i $ & 9 9 9 9 8 8 h h h h h h h j h h h k h h h h 7 2 h x x x z z z x f l h h h h l h h h h l h h h h h x h h h h > 9 ",
"* i %.%.%.r # & , , , , , 6 u u u u q s u u q q u u u q e 7 , > 9 u u u u u q u a u u s s u u s u u u u u u s s a s u d t 2 > > ",
"* ~ %.%.%.@.O # & & : : & & & 2 9 u q 9 q 9 q q 9 u 9 9 w w 7 7 9 9 9 9 t u t u t u e 8 7 9 e 7 9 9 t u t u 0 0 9 9 9 9 t u 9 5 ",
"* -.=.=.=.1.5 & 0 0 0 0 8 & : l m m m m m m m m R S m m m m E E B B B C C m m x E E V m f e e s l m m E E E x E x C C C m A m A ",
"; =.=.=.-.;.G & 0 0 0 0 0 1 , h h x x h k k k k h h z h h h h z k k k k z z k k f z f h f 9 s h l h f f k k h k z h h k h h z z ",
"5 =.=.=.=.4.~ & 0 0 8 0 0 6 , h x x h h k k k k x z z z z h z h k k k k k k k k z f z h h t a h z f h z k k k k h z k k h h z h ",
"5 -.=.=.=.4.{ * 0 0 0 0 0 8 1 h h h h x k k k k h x z h h z h x k k k k k k k k z f z z f t s z h z z h k k k k k k z h z z h z ",
"5 %.%.%.-.8.8.& 0 8 0 0 8 8 , a h h h f V h h f z h h f f z f f k k l h h h z z z z h f z 0 a h V h z z z z h h z z h z z z f z ",
"5 %.%.%.%.8.d.& 0 0 0 8 0 8 6 q l h l l f f V l h h l l z f V V k k h f h V z f h f z z l 9 e V f z z f h h z z z h z h f z z h ",
"5 -.%.%.%.:.d.& 0 0 8 q 0 , , q s f f f h z V f z z f f z f f f k h l l h f h z h l h l f - > f h h h z f h f f z h z f z z z f ",
"5 -.%.%.%.1.a.& 6 6 6 6 , , , 6 9 a u u u a t a u u u u u a e w w w 9 t u t u 0 0 u e 7 > & & > u a s s u s s s s a s s s s s s ",
"5 =.=.=...6.s.$ 6 6 6 6 , , , , 6 e e 0 8 9 e 9 e 9 e e 9 e 7 $ & - 7 9 7 7 w e e 7 w > < , < , 7 u a u u u u u u u u u q 0 7 2 ",
"* =.=.=.6.-. .& 0 0 0 0 q q q q s E V m E E E V V E E E E E V 2 - f V x V m V V x x V m l l l V V V V V V V m V z V V V x x e u ",
"% =.=.=.-.-.{ & 0 8 0 0 q q a 0 q f f f f f f f f f s f f f f 8 2 f f f f f f f f f f f f f f f f f f f f f f f f f f f f f u 0 ",
"* =.=.=.$.e.g = 8 0 8 0 q q a q q f f f f f f f f f f f f f f s a f f f f f f f f f f f f f f f f f f f f f f f f f f f f f t u ",
"* -.;.=.;.p.y & 0 8 0 0 q q a q 0 a f f f f f f f f f f f f f s a f f f f f f f f f f f f f f f f f f f f f f f f f f f f f u 0 ",
"% y.4.r.a.s.3 & 8 0 8 8 q 0 0 q q q f f f f f f f f f f f f f s s f f f f f f f f f f f f f f f f f f f f f f f f f f f f f t u ",
"% { i.s.s.y.# & 8 8 8 0 0 q q q q q a f f f f f f f f f f f f s t f f f f f f f f f f f f f f f f f f f f f f f f f f f f f 7 e ",
"% p 1.4.;.) O & 0 8 0 0 0 0 0 q 0 a a f f f f f f f f f f f f 0 9 f f f f f f f f f f f f f f f f f f f f f f f f f f f f f - 2 ",
"* I %.%.=.4.; # = = = = = = = = : = 7 s a a a s a s a s s u 0 9 0 t a a s a a s a s 0 9 e 9 e u t s t t t t t s t s t t 7 > # % ",
"* ..%.%.=.4.y $ = , 6 = = & = = 6 8 0 8 t s s V z z z z f f f f s f V f V V z f V f V f s w 7 7 e t d s s s s e e e t a s s w w ",
"4 %.%.%.%.4.~ & 8 8 8 8 8 = = 8 0 9 0 0 f E V V V V z V V z l V V V E f V V V V V V V z V u e l N V B N V N N V E E N V N N N N ",
"5 %.%.%.%.:.{ & 8 8 8 8 8 8 6 9 0 0 0 8 f f f f f f f f f f f f f f f f f f f f f f f f f t a f f f f f f f f f f f f f f f f f ",
"5 -.-.=.=.4.1.& 8 8 8 8 8 8 7 9 0 0 9 9 a f f f f f f f f f f f f f f f f f f f f f f f f 9 u f f f f f f f f f f f f f f f f f ",
"5 -.=.=.=.1.d.& 8 8 8 8 8 8 0 9 0 9 0 0 0 f f f f f f f f f f f f f f f f f f f f f f f f e u f f f f f f f f f f f f f f f f f ",
"5 =.=.=.=.;.d.& 8 8 8 8 8 8 0 9 9 9 0 0 0 f f f f f f f f f f f f f f f f f f f f f f f f u t h f f f f f f f f f f f f f f f f ",
"5 =.=.=.=.<.d.& 8 8 8 8 8 8 8 0 8 0 0 0 0 s f f f f f f f f f f f f f f f f f f f f f f f f f h f f f f f f f f f f f f f f f f ",
"3 =.=.=.=.=. .& 8 8 8 8 8 8 9 0 0 9 0 0 9 u f f f f f f f f f f f h f f h h h f f l f f z h h h f f f f f f h f f f f f f h h f ",
"% =.=.=.=.;.} # + + + + + + @ = & & = & = = > h f 2 % O . # $ $ # $ $ # # # $ $ # # # # # # # $ # # $ # # & 2 h f < # X . # $ # ",
"* =.=.=.=.1.G $ 1 2 w e 7 w 7 w e 7 e 7 7 e x B t w 5 5 5 w 5 5 5 5 5 5 5 e 5 5 w 5 r 5 5 9 5 5 w 5 5 r 5 5 5 y j j j j j j j j ",
"* ;.=.=.;.d.r & 9 u f f f f f f f s f f s f / W B / / / / / / / / / / / / / / / / / / / / / / / / / / / / / / B I / / / / / / / ",
"* 0.i.a.d.d.% & u u s f s f d f h s h s h s / W h / / / / / / / / / / / / / / / / / / / / / / / / / / / / / / K W / / / / / / / ",
"* ~ d.s.a. .# & 9 u f f f s f s h h s j j x / S f / / / / / / / / / / / / / / / / / / / / / / / / / / / / / / j W / / / / / / / ",
"* r 4.%.%.o.# & f f K K l G G l x j K x x B I u x [ [ [ [ [ [ [ [ [ [ [ [ [ [ [ [ [ [ [ [ [ [ [ [ [ [ [ [ [ [ I ~ [ [ [ [ [ [ [ ",
"* T %.%.%.4.; & t a f s f f f l j x h z s u u q k C R R R R I C R R R R R R R R R R S A R R R R R R R R S S / j B / / ! / / / / ",
"* #.=.=.%.:.y # 1 1 u u u 0 u u q u u u u u u u u k k h h h h h f f f k h h h h h h h h h h h h h h h h h h h t i h h h f f f f ",
"3 -.=.=.%.4.U & 1 1 t u u u u u 0 0 q u q t u 9 > u h h h k h h h j k k h h h h h z h h h h h h h h h h h h t ; < s h h f f f f ",
"5 =.=.=.%.4.o.# O O O # # O $ : > ; > > > O O . . . O ; > 9 9 5 > > > & # # # $ # ; < > > > > < > > < ; # . . . . . # < > e 9 > ",
"5 =.=.=.%.4.1.# X . . X X . . . . . . . . . . . . . . . . . . . . . . . X . . X . . . . . . . . . . . . . . . . . . . . . . . . "
};
