/* XPM */
static char *f7164044c0bc41e5bfe5048ae424afd7rShMp5BDM7uReA60[] = {
/* columns rows colors chars-per-pixel */
"64 64 117 2 ",
"   c None",
".  c #4F2913",
"X  c #4F2D18",
"o  c #502D17",
"O  c #52311D",
"+  c #4F3727",
"@  c #543623",
"#  c #583622",
"$  c #543927",
"%  c #5A3B27",
"&  c #563C2B",
"*  c #5B3C29",
"=  c #543F30",
"-  c #5B402D",
";  c #564335",
":  c #5B4435",
">  c #5A4739",
",  c #5C4A3D",
"<  c #614432",
"1  c #634A37",
"2  c #634E3D",
"3  c #5E4E42",
"4  c #5C5247",
"5  c #5D5349",
"6  c #604F42",
"7  c #625346",
"8  c #6B5545",
"9  c #61554B",
"0  c #63584E",
"q  c #6A5B4C",
"w  c #715D4E",
"e  c #655C54",
"r  c #6A5E50",
"t  c #665F58",
"y  c #666057",
"u  c #6C6154",
"i  c #676159",
"p  c #68625A",
"a  c #69645B",
"s  c #6D655A",
"d  c #69635C",
"f  c #69645C",
"g  c #6A645C",
"h  c #6A655C",
"j  c #6B655D",
"k  c #6B665D",
"l  c #6B665E",
"z  c #6C675E",
"x  c #6F6659",
"c  c #6D685F",
"v  c #6D695F",
"b  c #6E685F",
"n  c #716151",
"m  c #736555",
"M  c #756456",
"N  c #746656",
"B  c #766A5B",
"V  c #776A5C",
"C  c #72695D",
"Z  c #7A6A5D",
"A  c #796B5E",
"S  c #7A6A5D",
"D  c #6E6A60",
"F  c #726C60",
"G  c #796E60",
"H  c #7B7365",
"J  c #7A7366",
"K  c #767469",
"L  c #7E7568",
"P  c #7E776A",
"I  c #7B756A",
"U  c #7E7C72",
"Y  c #807569",
"T  c #80776B",
"R  c #82776C",
"E  c #82776C",
"W  c #817C6F",
"Q  c #82796D",
"!  c #837D72",
"~  c #867E74",
"^  c #838074",
"/  c #828077",
"(  c #898177",
")  c #868579",
"_  c #87867A",
"`  c #868579",
"'  c #88877B",
"]  c #88877C",
"[  c #8A867D",
"{  c #89887D",
"}  c #89887E",
"|  c #8A897E",
" . c #89887D",
".. c #8A8880",
"X. c #8B8880",
"o. c #8B8A80",
"O. c #8C8A80",
"+. c #8D8B81",
"@. c #8D8B82",
"#. c #8F8B83",
"$. c #8D8C83",
"%. c #8E8D83",
"&. c #8E8D84",
"*. c #8F8D85",
"=. c #8E8C84",
"-. c #908F86",
";. c #918F86",
":. c #908F87",
">. c #918F87",
",. c #918F87",
"<. c #919087",
"1. c #919088",
"2. c #939189",
"3. c #93918A",
"4. c #94928B",
"5. c #95938C",
"6. c #93918A",
/* pixels */
"% % % % % % % % % % % % % % % % % % % % % % % % % % % % % % % % % % % % % % % % % % % % % % % % % % % % % % % % % % % %         ",
") ) ) ) ) ) ) P 8 * P ) ) ) ) ) ) ) ) ) ) ) ) ) ) ) ) ) ) ) ) ) ) ) ) ) ) ) ^ m % L H H H H H H H H H H H H H H H H H H H P     ",
") ) ) ) ) ) ) ) ) H ) ) ) ) ) ) ) ) ) ) ) ) ) ) ) ) ) ) ) ) ) ) ) ) ) ) ) ) ) ) 2 _ ` ` _ ` ` ` ` ` ` ` ` ` ` ` ` ` ` ` ` ` _ % ",
") ) ) ) ) ) ) ) ) ) ) ) ) ) ) ) ) ) ) ) ) ) ) ) ) ) ) ) ) ) ) ) ) ) ) ) ) ) ) ) N _ ` ` ` ` ` ` _ | | _ ` ` ` ` ` ` ` ` ` _ _ & ",
"4.4.4.4.4.4.4.4.4.-.X.X.X.X.X.X.| 5.5.4.5.5.5.5.5.5.4.5.5.5.4.5.5.4.5.4.5.4.5.5.4.4.4.4.5.5.5.5.5.5.4.4.5.5.<.%.{ ` ` ` ` ` ` * ",
"D D D D D D D D 7 , k k k k k k k k z k k k k k k z k k k z k k z k z k z k k z : k k k a k a k k k a k k k a k 1 { ` ` ` ` ` * ",
"D D v v z z z z 7 1 k k k k k k k k k k k k k k k k k k k k k k k k k k k k k k % p k a k a k a k a k a k a k a , %.` ` ` ` ` * ",
"k k k k z k z k 7 , k k k k k k k k k k k k k k k k k k k k k k k k k k k k k k % k a k a k a k a k a k a k a k , <.{ ` ` ` H * ",
"z z z a z a a z 7 2 k k k k k k k k k k k k k k k k k k k k k k k k k k s k k k & a k a k a k a z a a a a a a z , { <.X.) ) H % ",
"a a z z z z z z 7 2 k k k k k k k z k k k k k k k k k k k k k k k k k k z a k k % a a k a k a k a a z z z z a a 2 W <.<.1.<.S & ",
"z z a z a z z a 7 1 k k k k k k v a k k k k k k k k k k k k k k k k a k a v v a & a k a k a k a a z a a a a z a - 8 <.%.| V * * ",
"z a z z a z z a 7 > k k a d k k k a a s k k k k k k k k k k s a a y d d i d a s & k a k a k a k a a z a a z a a : 8 ) ) ` _ 8 * ",
"a a z a a z z z 2 & p p p p p p d i i d i i a a d a a z z d g d d i a i d i i d : k k a k a k a z z a a a a z z - | ` ` ` ` P * ",
"d y y d y d a a , & p p p p p p i i a i a d i i d d i d u i d d i d i i a i i d : a a k a k a k a a a z z a a a : 2.` ` ` ` ` * ",
"d y d t y d t d , & p p p p p p i d d d i d i d d i d i d d d t i i d d i i s i : k k a k a k a a a a z z a a a - 4.` ` ` ` ` * ",
"y y d y t d y d , & p p p p p p i d i a u i a i i i d i t d d d d i i i d i d i : z a k a k a k z z a a a a z a % 4.` ` ` ` ` * ",
"p y t d t p p p > - y a p p a a y a y a a d y d t t t t d d t t t t d t d t t t : f k d f k d d a a a z f f f f . 1.) ) ) ) ) % ",
"p p 4 7 7 7 7 4 ; ; 5 5 9 9 9 9 7 7 9 7 7 9 9 7 9 9 9 9 9 9 9 9 9 9 9 9 9 9 9 9 > p k d k f k d a z a a f f f ; X 1.) ) ) ) ) % ",
"O @ O + O @ @ & 4 4 > + o . . . . . X . . O O o . . . . . . o o o . o . . @ & ; 5 3 $ @ @ O @ X O @ @ O X X . . X <.) ) ) ) ) - ",
"4 4 4 4 4 4 4 4 4 4 4 4 4 ; o . . o : 4 5 5 4 4 4 4 4 3 > > > > > > > > 5 5 5 5 4 4 4 4 4 4 4 + , 4 4 4 4 4 4 + . <.) ) ) ) ) % ",
"4 4 4 4 4 4 4 4 4 4 4 4 4 4 , X X 3 5 3 5 4 5 5 4 5 5 4 5 5 4 5 9 5 5 5 5 5 4 4 4 5 5 4 5 4 5 + 3 4 4 4 4 4 4 4 o 2.` ` ) ) ) % ",
"4 4 4 4 4 4 4 4 4 4 4 4 4 4 4 & $ 4 4 5 5 5 5 4 5 4 4 5 4 4 5 5 3 5 5 5 4 5 5 5 5 4 4 5 5 4 5 + , 4 4 4 4 4 4 4 . 2.` ` ) ) ` % ",
"4 4 4 4 4 4 4 4 4 4 4 4 4 4 4 > & 4 4 5 5 5 5 4 5 5 4 5 5 4 5 5 5 5 5 3 4 5 5 5 5 4 5 5 5 5 5 + 3 4 4 4 4 4 4 4 . <.` ` ` ` ` % ",
"4 4 4 4 4 4 4 4 4 4 4 4 4 4 4 > = 4 5 5 4 4 5 5 4 5 5 4 5 5 5 3 4 4 5 5 5 5 4 4 5 5 5 4 4 5 5 + > 4 4 4 4 4 4 4 . 2.| ` ` ` H - ",
"5 5 5 0 5 5 5 5 5 5 5 0 9 5 5 : = 5 0 5 9 9 9 5 0 5 5 0 9 0 0 0 5 0 0 9 9 0 5 0 0 9 9 9 9 9 5 & 4 5 5 5 5 5 5 5 . E 2.<.{ { Y % ",
"f i f f p y k p f f p f i y a , > p p d i i p y p p p p t d t t d t t t t t t p t t d t i i t = 9 p d p k p a t . w 2.2.2.( w % ",
"e e 0 t t t t t e e y t e e 3 ; : , e t t e e t e y y e 9 9 0 0 0 0 0 e e e e e e e e e t t 5 + & 5 e e t e e e . o <.| _ H % % ",
"4 4 4 4 0 5 5 5 4 3 4 4 4 9 7 9 9 9 0 e e e e e e e e 0 6 > = & = : = 9 9 9 9 9 9 5 5 4 5 5 > ; ; > 9 9 5 3 3 4 . * _ ` _ _ n * ",
"5 e i i i i i p p p p p p f p f a a d d s d d k k k f k k k : , p k k k d D d D D d D D d D D f D f D f s z s k . 8 ` ` ` ` W % ",
"i i i i i i i i p y p i i i i i i d i i y d p p p p i p p p 3 3 p p p t t t t t i i t t i i t i i i i p i i p y . S ` ` ` ` _ % ",
"i i i i i i i i p p y y i i i i i i i i y p y t y p y y i i 4 5 t p p p t p t p i i i i i i i i i i i i i i i i . ( ` ` ` ` _ % ",
"i i i i i i i i y p p p i i i i i i i i d y p p p p p p i i e e t p t p p p t p i i i i i i i i i i i i i i i i . 2.` ` ` _ _ % ",
"i i i i i i i i i i p p d t d t p t y p p t t d y p p t p t e e p i t p i i i p t d t d t t t d t p p t i i i i . 6.) ) ) ) ) % ",
"i i i i i i i i i p t t t d t t p p p p p p p t p t p p t t 0 e i i p p i i i t d t d t d t d t d t p p i t i i @ 6.) ) ) ) ! % ",
"i i i i i i t i i p p p d t t t t p t y t p t d p t t p p t 9 3 t t p t p y i p t t t t t t t t i d t p t d t d : 3.) ) ) ) H % ",
"; 4 0 0 0 e e e 0 0 e 5 e t e 0 e e e e e t e e e t t t e 0 9 5 5 0 e e 5 e t 5 0 t 0 0 e e e 0 9 9 0 0 e 9 0 0 < 3.) ) ) ' H % ",
"> , 5 e 0 0 0 5 0 0 0 0 0 0 9 3 , 3 4 9 0 0 0 0 0 0 0 0 0 0 0 0 0 0 0 0 e 0 5 e 0 0 0 0 0 0 9 0 5 5 5 5 5 5 4 5 . 4.) ) ) ) H % ",
"d d f f f p p D f f f p t D d 0 3 p k k z d d d d a k d s z d d d z d d k k k d j j j j d j j b d d t t t d d t . 4.) ) ) ) H % ",
"t t t t t t t t t t i t t t e 0 3 t t t t t t t t t t t t t t t t t t t t t t t t t t t t t t t t t t t t t t t . #.) ) ^ ' H * ",
"t t t t t t t t t t t t t t t e 5 t t t t t t t t t t t t t t t t t t t t t t t t t t t t t t t t t t t t t t t o Y ' ) ' ' H * ",
"t t t t t t t t t t t t t t t e 0 t t t t t t t t t t t t t t t t t t t t t t t t t t t t t t t t t t t t t t t . M ,.^ ' ) H % ",
"t t t t t t t t t t t t t t e e 9 t t t t t t t t t t t t t t t t t t t t t t t t t t t t t t t t t t t t t t t . 8 3.-.#.#.Y % ",
"t t t t t t t t t t t t t t t 0 3 t t t t t t t t t t t t t t t t t t t t t t t t t t t t t t t t t t t t t t t . % 3.3.1.Y 8 * ",
"t t t t t t t t t t t t t t t , & t t t t t t t t t t t t t t t t t t t t t t t t t t t t t t d t t t t t t t e . . -.' ' ^ 1 * ",
"9 0 0 0 5 0 0 0 0 0 0 0 9 0 > $ @ & 7 0 0 0 0 0 9 0 9 9 3 6 6 6 3 0 e 0 0 e e 0 0 0 e 0 0 6 = = : = > 6 6 7 5 3 o 1 ) ) ) ) V * ",
"3 3 4 5 e 5 0 0 3 9 3 5 0 t 0 q 0 q e e t t t t i i i i e 7 & & > 0 e e e e e t e t e e e 9 7 6 3 3 2 6 3 2 > 6 . m ) ) ) ) ^ % ",
"0 t t t t t t t t t t t t t t t t t t t t d d t d d d d d d , 6 g d d d g t D d d d d d d d d d t D t t d d d g . E ) ) ) ) ) * ",
"t t t t t t t t t t t t t t t t t t t t t t t t t t t t t t y e t t t t t t e t t t t t t t t t t t t t t t t e . 3.) ) ) ) ) * ",
"t t t t t t t t t t t t t t t t t t t t t t t t t t t t t t t t t t t t t t t t t t t t t t t t t t t t t t t t . 4.` ` ` ` ` * ",
"t t t t t t t t t t t t t t t t t t t t t t t t t t t t t t t t t t t t t t t t t t t t t t t t t t t t t t t t % 4.` ` ` ` ) * ",
"t t t t t t t t t t t t t t t t t t t t t t t t t t t t t t t t t t t t t t t t t t t t t t t t t t t t t t t t < 4.( ` ) ) ) % ",
"t t t t t t t t t t t t t t t t t t t t t t t t t t t t t t t t t t t t t t t t t t t t t t t t t t t t t t t 9 * 4._ ` ) ) ] % ",
"t t p t t t p p t t t y t p t t d t t i t t d e t t i e d t d t t t t t d t t t t t t t i i y t t t t t t t e * . 3.) ) ) ) ) % ",
"& : : @ $ @ & , t y , % X . X $ @ $ @ @ @ @ @ @ @ @ $ @ @ @ @ @ @ @ $ @ @ $ & 7 t t 9 : @ @ : : > = : > > % O o . 3.) ) ) ) ~ % ",
"7 2 2 2 2 2 2 2 7 u i u i u u u u u u u u u u u u u u u u u u u u u u u u u u u r s u u u u i d s e r t r r q O . Y ' ) ) ' K % ",
"K K K K K K K K C u K K H K K K K K K K K K K K K K K K K K K K K K K K K K K K q F K K K K K K I I I I K K I d . S -.' ) ' H * ",
"K K K K K K K K F s K K K K K K K K K K K K K K K K K K K K K K K K K K K K K K q F K K K K K K K K K K K K K K . 8 3.>.-.*.Q % ",
"K K K K K K K K F m K K K K K K K K K K K K K K K K K K K K K K K K K K K K K K q F K K K K K K K K K K K K K K o * 4.-.,.Y 1 * ",
"U U U U U U U U K C U U U U U U U U U U U U U U U U U U U U U U ! U U U U U U U q I / / ) / / ! / / ! / / / ! / . O [ ' ) ( 2 % ",
"K K K K K K K K C u K K K K K K K K K K K K K K K K K K K K K H K K K K K K K K q C K K K K K K D D v D D D C v . 1 ( ' ) ' G % ",
"t t e y y y y y q q y y t y y y y y y y y y y y t y y y y y y y y y y y t t t y 8 e e e y y t t t t e y e d t e o w ` ` ) ) ) * ",
"t t y y y p y 9 : - e y t t y y y i y y y y y y t y y y y y y y y y y y t t y , - , y y e y e y t t y y t e t 7 o Y ` ` ) ) ) * ",
": : : : & @ . . . . . @ : : 2 4 , : : - & @ @ @ @ @ : : : : : : : : : : & O . . . . . @ - : : : : : - @ # @ # o . | { ` ` ` ) * ",
". . . . . . . . . . . . o . . . . . o . o o . . . . . . . . . . . o . . o . . . . . . . . o . . . . . . . . . . . 3.{ ` ` ` ` * "
};
