/* XPM */
static char *_3de6a5754c64151b272a7fe2881633aGoKUhdgang1Kp2kk[] = {
/* columns rows colors chars-per-pixel */
"64 64 103 2 ",
"   c None",
".  c #4F2913",
"X  c #502C16",
"o  c #512E19",
"O  c #52311D",
"+  c #533522",
"@  c #553926",
"#  c #5A3B27",
"$  c #563C2B",
"%  c #5A3D2B",
"&  c #563F30",
"*  c #5E432F",
"=  c #574132",
"-  c #5A4435",
";  c #5B4638",
":  c #5C4A3C",
">  c #614E3E",
",  c #5D4E42",
"<  c #5C5247",
"1  c #5F564C",
"2  c #604E41",
"3  c #645244",
"4  c #685645",
"5  c #62554B",
"6  c #63584E",
"7  c #6A5A4A",
"8  c #645C53",
"9  c #655C53",
"0  c #655D53",
"q  c #655C52",
"w  c #665D53",
"e  c #675D53",
"r  c #675E52",
"t  c #655D54",
"y  c #645D55",
"u  c #655D55",
"i  c #665D54",
"p  c #645E54",
"a  c #655E54",
"s  c #655E55",
"d  c #665E55",
"f  c #675E55",
"g  c #675F55",
"h  c #655E56",
"j  c #665F56",
"k  c #675F56",
"l  c #645B51",
"z  c #685F53",
"x  c #6A5E52",
"c  c #665F58",
"v  c #666056",
"b  c #666057",
"n  c #686053",
"m  c #6E6456",
"M  c #666158",
"N  c #666059",
"B  c #676159",
"V  c #676259",
"C  c #686058",
"Z  c #686158",
"A  c #68625A",
"S  c #69625A",
"D  c #69635B",
"F  c #6A6459",
"G  c #69645B",
"H  c #6E675A",
"J  c #6F665B",
"K  c #6B635C",
"L  c #69645C",
"P  c #6A645C",
"I  c #6A655C",
"U  c #6B655D",
"Y  c #6A665C",
"T  c #6B665D",
"R  c #6B675D",
"E  c #6C675F",
"W  c #6F695F",
"Q  c #756659",
"!  c #71695C",
"~  c #706A5E",
"^  c #726A5F",
"/  c #726B5F",
"(  c #736B61",
")  c #746F63",
"_  c #746F64",
"`  c #726E69",
"'  c #737165",
"]  c #7B7365",
"[  c #757168",
"{  c #757268",
"}  c #767269",
"|  c #767469",
" . c #787468",
".. c #7B7469",
"X. c #7C766B",
"o. c #817C6F",
"O. c #827F72",
"+. c #867E75",
"@. c #828077",
"#. c #858377",
"$. c #868579",
"%. c #939189",
"&. c #93918A",
/* pixels */
"# # # # # # # # # # # # #           # # # # # # # # # # # # # # # # # # # # # # # # # # # # # #   # # # # # # # # # # # # # # # ",
"] ] ] ] ] ] ] ] ] ] ] ] ] ] O.    ~ ~ ~ ~ ] ] ] ] ] ] o.$.$.$.$.$.$.$.$.$.$.$.$.$.$.$.$.$.$.$.$.4 $.$.$.$.$.$.$.$.$.$.$.$.$.$.$.",
"$.$.$.$.$.$.$.$.$.$.$.$.$.$.$.4 7 ~ ~ _ #.$.$.$.$.$.$.$.$.$.$.$.$.$.$.$.$.$.$.$.$.$.$.$.$.$.$.$.4 $.$.$.$.$.$.$.$.$.$.$.$.$.$.$.",
"$.$.$.$.$.$.$.$.$.$.$.$.$.$.$.> 5 ~  .$.$.$.$.$.$.$.$.$.$.$.$.$.$.$.$.$.$.$.$.$.$.$.$.$.$.$.$.$.4 $.$.$.$.$.$.$.$.$.$.$.$.$.$.$.",
"%.%.%.%.%.%.%.%.%.%.%.%.%.%.%.Q +.%.%.%.%.%.%.%.%.%.%.%.%.%.%.%.&.&.&.&.&.&.&.&.&.&.&.&.&.%.%.%.7 &.%.&.&.&.&.&.&.%.%.%.&.%.%.%.",
"{ { { { { { { { [ [ [ [ { { { 4 ! { { { { { { { { { [ [ { { { { { { { { { { { { { { { { { { { { 3 { { { { { { { { ` { { ` { { { ",
"R R R R R R R R R R R R R R R 3 f U R R R R R R U R R R R R R R R R R R R R R R R R R R R R R R > R D U U U U R R R W R U U R R ",
"R R R R R R R R R R R R R R R 5 f R R R R R R R W R R R R R R R R R R R R R R R R R R R R R R R > R U U U U U W R R U U U U E D ",
"R R R R R R R R R R R R R R R 5 z R R R R R R R R R R R R R R R R R R R R R R R R R R R R R R R 2 D R D U U U D D E W R R R D R ",
"R R R R R R R R R R R R R R R 4 n R R R R R R R R R R R R R R R R R R R R R R R R R R R R R R R 2 R R R W U U R U U U U R R R R ",
"R R R R R R Y R R R R R R R R 5 n R W U R R R R R R R R R R R R R R R R R R R R R R R R R R R R > U R R R R R R U R D U U E D E ",
"R R R R R R Y W R R R R R R H 5 r G G G R G R G L Y L R R R R E R R R R R R R R R R R R R R R W > U D R D R D R R R U U U D R R ",
"G G G G G G Y G Y G Y G Y G R @ 5 A A A A A A A L A A A A A A L R R R D R R R R R R R R R R U U > A A A A A A A A A A A D D D D ",
"G G A G A A G A G A G A V G A O 6 A A A A A A A V V A A A A A A V V D D D V c D D D D D D V A A @ A A A A A A A A A A A D A A D ",
"A A A A A A A A A A A A A A A O 5 V A A A A A A A A A A A A A A D V D c V D c V V D D c c V D A # A A A A A A A A A A A A A A A ",
"A A A A A A A A A A A A A A A O 6 A A A A A A A A A A A A A A V V D V D D V D D D c V D D D c c o A A A A A A A A A A A A A A A ",
"A A A A A V V D V V A V V V A O 6 V A A A A A A N N L A A A V V N L V N V L L N A L V V A A A , @ c V D V V V A A A t A A A A A ",
"A A V G 5 3 5 5 1 < 1 5 5 5 3 O 6 V A A A A A A N N N L A A V c V V V y V V N N A N L N A A 1 < < 1 5 5 1 < < 5 5 5 5 5 5 A A A ",
". . . . . . . . . . . X X + = , $ . . . . . . . . + + + + + + + + + + + X . X . . + + $ ; < < < < < @ . . . . . . . . . . . X X ",
"< < < < < < ; ; ; ; , < < < < < < < < < < = . O < < < < < < < < < < < < < < < < < < < < < < < < < < < < < , = . X - < < < < < , ",
"< < < < < < < < < < < < < < < < < < < < < < O = < < < < < < < < < < < < < < < < < < < < < < < < < < < < < < < O $ < < < < < < < ",
"< < < < < < < < < < < < < < < < < < < < < < = , < < < < < < < < < < < < < < < < < < < < < < < < < < < < < < < & ; < < < < < < < ",
"< < < < < < < < < < < < < < < < < < < < < < = , < < < < < < < < < < < < < < < < < < < < < < < < < < < < < < < = ; < < < < < < < ",
"< < < < < < < < < < < < < < < < < < < < < < & : < < < < < < < < < < < < < < < < < < < < < < < < < < < < < < < = ; < < < < < < < ",
"1 1 1 1 1 1 1 6 1 1 1 1 6 1 1 1 1 1 1 1 1 1 & ; 1 1 1 1 6 1 1 1 1 1 1 1 1 1 1 1 6 1 1 6 1 1 6 1 1 6 < 6 1 1 1 $ : 1 1 1 1 1 1 1 ",
"M N V V V V V c V c V A c A c V N N N N V V & , A V V A D c c V N N V V V c V A D c c c V c c c c A A c A c c @ 1 M c V V V V V ",
"p p y y t t t t 8 8 t t 8 t t 8 p p 8 1 1 ; @ = y c y y 8 8 t t y V p p t t p y 8 8 t 8 t 8 c 8 8 t 8 6 1 1 ; @ ; p V V c A V c ",
", < < < , , 5 , 5 6 8 8 6 5 6 6 1 1 : ; ; - ; ; - , < , , 5 < < 1 1 < < < < , < < 6 l l 6 6 6 l 6 6 6 5 5 5 5 5 < 1 6 6 6 6 6 6 ",
"V V V l < , t U E E E E E E E E E E E E E E E E E E E E E E E E E E E D 8 5 5 c ` ` ` ` ` ` ` ` ` ` ` ` ` ` ` ` ` ` ` ` ` ` ` ` ",
"V V V V l < V A A c c V V A c V V V A N V V c V c V A c c V A c A c A V D 8 5 A V c V c V V c D c D V c A c V c V A c V A A A c ",
"V V V V t , A c c c A A c c A A V V c c c c A A V V V V A A V V V c c A A 8 5 c c D D c c D V c c V V c A V c V c A c A A A A c ",
"V V V V t < A V A A V c A V V c V V V V A V V c V c c V V c c A V A V A c 8 5 V V V c V V c V c D V c D c V A A c V V A c c A A ",
"V V V V A 2 D c c V D c c D c D V A A c A c c V A c c V c A A A c A c A V t 6 c V c A A V c A V c c A V A V c c A V c A V V c A ",
"V V V V V , c c D V c V D c D c c c V V V V V V V V A V A A c c c V A c c 8 , V A c V c V A c V A V A c c V A V A c V A c A c V ",
"V V D c 6 $ c c c V c V c D c c A V c A c A V c c A A V V c c A A c V c c 5 - V A A A c c c A A V A V c c A A c V V c c A c A V ",
"t , 2 , $ $ , l c V D c D c c c 8 t V A c V V c c V t l l l 8 8 8 8 l 5 : & $ , 8 c V V A V V c c c V A A A c c c A A V V V A c ",
"c 5 - $ $ & ; - 5 5 1 1 5 5 5 5 , ; ; - & - & - : 5 5 , 5 , 2 , , 5 2 ; ; ; ; > : 6 , , , 5 5 5 5 5 6 , , , , , , , 5 l l l l l ",
"c c c c c c c c c c c u c c u c c c c 6 , : : : f U K K U D R R K U U U U U U K U D U U R U D U R R U U U c l , 6 D A R D D D A ",
"c c c c c c c c c c c c c c c c c c c c 6 : ; 5 c c v v c c c c t c c c c c 8 c c c c c c c c c t c c c c c c < 6 c c c c c c c ",
"c c c c c c c c c c c c c c c c c c c c c < : l c c c c c c c c c c c c c c c c c c c c c c c c c c c c c c c 5 6 c c c c c c c ",
"c c c c c c c c c c c c c c c c c c c c c 8 , l c c c c c c c c c c c c c c c c c c c c c c c c c c c c c c y 5 6 c c c c c c c ",
"c c c c c c c c c c c c c c c c c c c c c c , l c c c c c c c c c c c c c c c c c c c c c c c c c c c c c c c 5 6 c c c c c c c ",
"c c c c c c c c c c c c c c c c c c c c c u 5 5 c c c c c c c c c c c c c c c c c c c c c c c c c c c c c c c 3 1 c c c c c c c ",
"c c c c c c c c c c c c c c c c c c c c c 8 , 5 c c c u c c c c c c c c c c c t c c c c c c c u c c c c c c c - - u c c c c c c ",
"5 6 6 6 6 6 6 5 5 5 6 6 6 5 6 5 6 6 6 2 , & + % , 6 5 5 5 5 6 6 6 6 5 5 5 6 6 6 6 6 6 5 6 5 5 6 5 5 5 5 5 5 2 + + ; 5 l y l l y ",
"5 5 1 , , , , 5 l l c k c l l l l l l 2 2 2 2 2 > 5 5 5 5 5 5 5 6 5 5 5 , , , , , , 5 l l 5 5 5 5 5 5 5 : & & & & & 2 l l l l l ",
"c c c c , , t D U U U U U U U U U U U U U U U U U U U U A U U U K U U U t 5 , 6 D D U U U U U U K K K K U U U U ( K U U U U U U ",
"c c c c 6 , c c c c c c c c c c c c c c c c c c c c c c c t c c t c c c c 8 , c c c c c c c c c c c c c c c c c c u c c c c c c ",
"c c A c c , c c c c c c c c c c c c c c c c c c c c c c c c c c c c c c c 8 , c c c c c c c c c c c c c c c c c c c c c c c c c ",
"A c N c c < c c c c c c c c c c c c c c c c c c c c c c c c c c c c c c c l , c c c c c c c c c c c c c c c c c c c c c c c c c ",
"N N N N V 6 c c c c c c c c c c c c c c c c c c c c c c c c c c c c c c c 8 , c c c c c c c c c c c c c c c c c c c c c c c c c ",
"N N N N c t c c c c c c c c c c c c c c c c c c c c c c c c c c c c c c c c l c c c c c c c c V c c c c c c c c c c c c c c c c ",
"N N A V c c f f c c c f c c c c c c c c c c c A c c f c c c V c c c c c V c c c c t c c n b b t c c f c c c t c t 8 A t c f c c ",
"% & % % % % 5 5 5 2 : : 2 5 c c f 6 > % # % % # % - - > > - % # % % % % % # % - : : # % = * : l c c 6 : > 5 5 5 5 > : : > ; > : ",
"3 3 4 3 3 4 3 3 3 3 3 4 3 4 x e > * * - - * - * * * * - * * * * # > - * * * * * * * - * * * * * : ( k K x m m m m m m m m m m m ",
"| | { |  .| { | { ]  .} } { { 7 ~  . .|  . .| | } }  .| }  .| | ] { { ] | | | | | | |  .| | | ' O ` ....} }  .| ] [ | |  .} [ [ ",
"| | | | | | | |  .| | | | | | 5 ( { | | | | | | | | | | | | | | { | { | | | | | | | | | | | H @ . | | | | | | | { { | | | | | | ",
"| | | | | | | { | | | } | | | > ( | | | | | | | | | | | | | | { | | { { | | | | | | | | ' n ; @ . | | | | | | | | | | | | | | | ",
"@.@.@.@.@.@.+.@.@.$.+.+.@.@.@.> X.@.@.+.@.@.@.@.@.@.@.@.@.@.$.+.@.@.@.$.@.@.@.@.@.@.V n 1 1 > @ . X.+.@.@.@.@.@.@.@.@.+.@.@.@.@.",
"} } } } } { { { { { { } { { | 3 W { { { { { { { } } } } } { } { { { { } } } } } | | 1 1 1 6 : = . ( } ..{ { { { { { { ..} } } } ",
"V p V c V t V V V t V V V V t 4 r p c V t V v v V v V p v v v t V t v v V t V c v v v 6 1 3 ; + . < c V v v v v b b b b V c c b ",
"V c V v v v t V V V t t v 6 , % l p V t V v v v c c t V v t v A v V v t c V V v v v v v 1 < ; X . l t c v v V v b b b b c V b b ",
"@ @ + + @ + % - ; - @ @ . . . . X * - - ; ; - - - ; ; ; - - - - - - - - - - ; - - - ; - = O ;     V V V v v v < : ; ; - ; - - - ",
". . . . . . . . . . . . . . . . . . . . . . . . . . . . . . X . X X . . X . . . . . . . .           @ ; ; @ . . . . . . . . . . "
};
