/* XPM */
static char *result[] = {
/* columns rows colors chars-per-pixel */
"32 32 56 1 ",
"  c black",
". c #070702",
"X c #080802",
"o c #0E0F03",
"O c #151605",
"+ c #161706",
"@ c #1C1D06",
"# c #1C1D07",
"$ c #1D1D07",
"% c #1D1E07",
"& c #2B2C0A",
"* c #32330C",
"= c #32340D",
"- c #393B0E",
"; c #40420F",
": c #474911",
"> c #4E5012",
", c #4E5013",
"< c #545714",
"1 c #555815",
"2 c #565814",
"3 c #575916",
"4 c #5D5F16",
"5 c #5D6018",
"6 c #636719",
"7 c #646618",
"8 c #70741A",
"9 c #71741A",
"0 c #70741B",
"q c #71741B",
"w c #71751B",
"e c #72751B",
"r c #70741C",
"t c #71751C",
"y c #70751D",
"u c #71751D",
"i c #72751C",
"p c #72761C",
"a c #73761C",
"s c #72761D",
"d c #73761D",
"f c #73771D",
"g c #72761E",
"h c #73761E",
"j c #73771E",
"k c #74771C",
"l c #74771D",
"z c #75781D",
"x c #74781E",
"c c #75781E",
"v c #75791E",
"b c #74781F",
"n c #75791F",
"m c #76791E",
"M c #76791F",
"N c #767A1F",
/* pixels */
"eeeeeeeeeeeeeeeeeeeeeeeeeeeeeeee",
"eeeeeeeeeeaeeeeeeeeeeefeeeeeeeee",
"eeeeeeeeecdleeeeeeeeeeeeeeeeeeee",
"eeeeeeeefsyaeeeeelaaeeeeeeeeeeee",
"eeeeeeeeeeweeeeeeqteeeeeeecseeee",
"eeeeeeeeeeeeeeeeeeeeeeeeee0qeeee",
"eeeeeeeee;   ;eeee-   -eeeeeemcz",
"eeeeeeee2&   &2ee2&   &2eeeeeqie",
"eeeeeee2  222  22  222  2eeeeeee",
"eeeeee-& .eee. && .eeaX &-eeeeee",
"eeeeee  2eeeec3  2eeecb5  eeeeee",
"elaeee  2eeeeb6#$7eeeip<  aeeeee",
"eurree  2eeeeeeeeeeeeee2  seeeee",
"eeeeee  2eeeeeeeeeeeeee2  eeeeaa",
"eeeeee  2cekeeeeeeeeeee2  eeeese",
"eeeeee  20xleeeeeeeeeee2  eeeeee",
"eeeeee  *48weeeeeeeeee4*  eeeeee",
"eeeeeee2  ezeeeeeeeeee  2eeeeeee",
"eeeeaea4$o->haeeeeee,-o$4eeeelxa",
"eeeetdeee- $eeaeeeee$ -eeeeeee0e",
"eeeeeeeee,*O$:daee,%+=,eeeeeeeee",
"eeeeeeeeeke$ -eeee- @weeeeeeeeee",
"eeeeeeeeeng1-o 44 o-,eeeeeeeeeee",
"eeeeeeeeeeeee$ ;; $eeeeeeeeeeeee",
"eeeeeeeeeeeee42  24eeeeeeeeeeeee",
"ekeeeeeeaeeeeee  eeeeeeeeeeeeeee",
"efeeeeeeeMzeeaeeeeeeeecaeeeeeeee",
"e9eeeeeeeqwelfNeeeeeee9eeeeeeaka",
"eeeeeeeeeeeaewweeeeeeeeeeeeeepjk",
"emlkeeeaeeeepeeeezlleeeeeeealewe",
"efwwaaewakleeeeleapweeeeeeee8eee",
"eeeeaaeeeteeeevaeeeeeeeeeeeeeeee"
};
