/* XPM */
static char *result[] = {
/* columns rows colors chars-per-pixel */
"32 32 62 1 ",
"  c black",
". c #1C1D06",
"X c #1C1D07",
"o c #1D1D07",
"O c #2A0001",
"+ c #393B0E",
"@ c #4D0F05",
"# c #530002",
"$ c #650704",
"% c #650804",
"& c #7D0003",
"* c #402C0B",
"= c #40420F",
"- c #4D5013",
"; c #4E5013",
": c #565814",
"> c #5D5F16",
", c #6B6E19",
"< c #70741A",
"1 c #71741A",
"2 c #70741B",
"3 c #71741B",
"4 c #71751B",
"5 c #72751B",
"6 c #70741C",
"7 c #71751C",
"8 c #70751D",
"9 c #71751D",
"0 c #72751C",
"q c #72761C",
"w c #73761C",
"e c #72761D",
"r c #73761D",
"t c #73771D",
"y c #72761E",
"u c #73771E",
"i c #74771C",
"p c #74771D",
"a c #75781D",
"s c #74781E",
"d c #75781E",
"f c #75791E",
"g c #75791F",
"h c #76791E",
"j c #76791F",
"k c #767A1F",
"l c #8D0003",
"z c #8F0003",
"x c #A60004",
"c c #B40004",
"v c #B70004",
"b c #C10004",
"n c #C70005",
"m c #D80005",
"M c #DC0005",
"N c #E80005",
"B c #934042",
"V c #CD4043",
"C c #EE4044",
"Z c #D38082",
"A c #F48082",
"S c white",
/* pixels */
"55555555555555555555555555555555",
"5555555555w55555555555t555555555",
"555555555drp55555555555555555555",
"55555555te8w55555pww555555555555",
"55555555554555555375555555de5555",
"55555555555555555555555555235555",
"555555555=   =5555+   =555555hda",
"55555555:*OOO*:55:*OOO*:,5555305",
"5555555: #xxx# :: #xxx# :5555555",
"555555+*#BZVnl#**#lnnnl#*=555555",
"555555 OxZSANnxOOxnNNNnxO 555555",
"5pw555 OxZSANMnzznMNNNnxO w55555",
"596655 OxZSANNNvvNNNNNnxO e55555",
"555555 OxVACNNNMMNNNNNnxO 5555ww",
"555555 OxnNNNNNNNNNNNNnxO 5555e5",
"555555 OxnNNNNNNNNNNNNnxO 555555",
"555555 OxnNNNNNNNNNNNNnxO 555555",
"5555555: #xmNNNNNNNNmx# :5555555",
"5555w5w>o@&bmNNNNNNmb&@o>5555psw",
"55557r555+ &xmNNNNmx& +555555525",
"555555555;o$&cmNNmc&%X;555555555",
"555555555i5o &xNNx& .45555555555",
"555555555gy-+@#nn#@+;55555555555",
"5555555555555o xx o5555555555555",
"5555555555555>:OO:>5555555555555",
"5i555555w555555  555555555555555",
"5t5555555ja55w55555555dw55555555",
"515555555345ptk55555551555555wiw",
"55555555555w54455555555555555qui",
"5hpi555w5555q5555app5555555wp545",
"5t44ww54wip5555p5wq455555555<555",
"5555ww55575555fw5555555555555555"
};
