/* XPM */
static char *a2e59f34a25f42008aa56555c5223d7cKcZh4nOmltwQmnrW[] = {
/* columns rows colors chars-per-pixel */
"64 64 81 1 ",
"  c None",
". c #51311D",
"X c #583724",
"o c #593925",
"O c #5A3A26",
"+ c #5C3D2A",
"@ c #5C3E2A",
"# c #5F4231",
"$ c #5C4432",
"% c #614533",
"& c #634837",
"* c #604A39",
"= c #614B3A",
"- c #654D3B",
"; c #674E3D",
": c #674E3E",
"> c #6A5344",
", c #6D5747",
"< c #6D5748",
"1 c #6E594A",
"2 c #6A5C4E",
"3 c #6F5C4D",
"4 c #715E50",
"5 c #725F51",
"6 c #6D6255",
"7 c #726153",
"8 c #736254",
"9 c #766457",
"0 c #746757",
"q c #766558",
"w c #766759",
"e c #76695A",
"r c #70695D",
"t c #716B5F",
"y c #796A5D",
"u c #796F61",
"i c #7D6F64",
"p c #7A7163",
"a c #7E7265",
"s c #7C7366",
"d c #7E7266",
"f c #7F7368",
"g c #787468",
"h c #7A7569",
"j c #7D7668",
"k c #7E786E",
"l c #7F7C70",
"z c #81766B",
"x c #81786C",
"c c #807B6E",
"v c #847B70",
"b c #847B71",
"n c #838073",
"m c #858377",
"M c #888077",
"N c #868579",
"B c #87867A",
"V c #8A847B",
"C c #88877B",
"Z c #88877C",
"A c #8D877E",
"S c #89887D",
"D c #8A897E",
"F c #8B8A7F",
"G c #8D8980",
"H c #8C8A80",
"J c #8D8B81",
"K c #8D8A82",
"L c #8D8C82",
"P c #8F8B84",
"I c #8F8D85",
"U c #908E85",
"Y c #908E86",
"T c #918F86",
"R c #918F87",
"E c #919088",
"W c #929088",
"Q c #929089",
"! c #939189",
"~ c #93918A",
"^ c #94928B",
/* pixels */
"9~NNNNN.                                                        ",
"9~NNNNN.                                                        ",
">~NNNNc.                                                        ",
":~NNNNp.                                                        ",
"+~ZNNNp.                                                        ",
"XP~ZNNp.                                                        ",
"Xb~~ERf.                                                        ",
"X9RHNeO.                                                        ",
"X3NNNN+.                                                        ",
"XaNNNNe.                                                        ",
"XFNNNNc.                                                        ",
"+RNNNNN.                                                        ",
":RNNNNN$                                                        ",
":RNNNNN*                                                        ",
"qRNNNNN.                                                        ",
"qRNNNNN.                                                        ",
"qRNNNNN.                                                        ",
"5RNNNNp.                                                        ",
":RNNNNp.                                                        ",
":RNNNNp.                                                        ",
"X~NNNNu.                                                        ",
"XHHNmg2.                                                        ",
"Xz^^krr.                                                        ",
"X5RHrrr.                                                        ",
"X7Nmurr.                                                        ",
"XzNNkr6.                                                        ",
"XRNNNg=.                                                        ",
"#RNNNN:.                                                        ",
":INNNN0.                                                        ",
">RNNNNf.                                                        ",
"9RmNNNN.                                                        ",
"9INNNNN.                                                        ",
"9UNNNNN.                                                        ",
"1ENNNNN.                                                        ",
":RNNNNN.                                                        ",
"&INNNNk.                                                        ",
"X~CNNNp.                                                        ",
"XMEDNNp.                                                        ",
"XpE!RV,.                                                        ",
"X,FVNkO.                                                        ",
"XeNNNN9.                                                        ",
"XxNNNNn.                                                        ",
"XUNNNNN.                                                        ",
"&RNNNNN.                                                        ",
";UNNNNN.                                                        ",
"1UNNNNN.                                                        ",
"9UNNNNk.                                                        ",
"9UNNNNc.                                                        ",
"9UNNNNN.                                                        ",
"1UNNNNN.                                                        ",
";UNNNNN.                                                        ",
"&ENNNNj.                                                        ",
"X!DBBBu.                                                        ",
"Xc!FCCp.                                                        ",
"Xy!UFa%.                                                        ",
"X8CBVn#.                                                        ",
"OFNNNN0.                                                        ",
";ENNNNn.                                                        ",
"9!NNNNN.                                                        ",
"q^NNNNN.                                                        ",
"q^NNNNc.                                                        ",
"q^NNNNj.                                                        ",
"q^NNNNN.                                                        ",
"qRNNNNN.                                                        "
};
