/* XPM */
static char *ffca9b3ac92a4c369386d4a49e02bf85Ipr9SidHiWWZk7Qg[] = {
/* columns rows colors chars-per-pixel */
"64 64 251 2 ",
"   c None",
".  c black",
"X  c #000001",
"o  c #030701",
"O  c #010502",
"+  c #010602",
"@  c #060404",
"#  c #030A02",
"$  c #030B02",
"%  c #040B01",
"&  c #080F0B",
"*  c #110A06",
"=  c #130E0C",
"-  c #180D08",
";  c #1A0F09",
":  c #061402",
">  c #081400",
",  c #081401",
"<  c #091901",
"1  c #081902",
"2  c #0B1E00",
"3  c #0B1E01",
"4  c #031508",
"5  c #08100B",
"6  c #041C0A",
"7  c #041F0B",
"8  c #131209",
"9  c #17140E",
"0  c #1B130A",
"q  c #1A140B",
"w  c #18120F",
"e  c #19160F",
"r  c #1C1E0E",
"t  c #27160D",
"y  c #201713",
"u  c #201E1D",
"i  c #2A1E18",
"p  c #2A1F19",
"a  c #0E2601",
"s  c #0F2800",
"d  c #0F2801",
"f  c #102B01",
"g  c #133200",
"h  c #153700",
"j  c #173C00",
"k  c #173E01",
"l  c #222410",
"z  c #282E15",
"x  c #352011",
"c  c #3B2112",
"v  c #31231C",
"b  c #2A3417",
"n  c #303317",
"m  c #3D3E1D",
"M  c #1A3321",
"N  c #173B2B",
"B  c #2D2B20",
"V  c #213B29",
"C  c #293E2A",
"Z  c #363027",
"A  c #323827",
"S  c #3B332A",
"D  c #4E2C18",
"F  c #403119",
"G  c #62361E",
"H  c #603D1F",
"J  c #49352A",
"K  c #4F392D",
"L  c #683A20",
"P  c #184100",
"I  c #194200",
"U  c #1A4600",
"Y  c #1C4B00",
"T  c #1F4B0A",
"R  c #1E5000",
"E  c #2F402A",
"W  c #4F5115",
"Q  c #61511C",
"!  c #68511F",
"~  c #474C2F",
"^  c #594B27",
"/  c #59462B",
"(  c #5A502F",
")  c #4A4435",
"_  c #424C3E",
"`  c #5B4234",
"'  c #4B503C",
"]  c #5F5633",
"[  c #58513F",
"{  c #644121",
"}  c #664E27",
"|  c #734120",
" . c #764522",
".. c #794723",
"X. c #6D5429",
"o. c #7A5126",
"O. c #7A522C",
"+. c #73582C",
"@. c #614637",
"#. c #6B4330",
"$. c #63453F",
"%. c #635B35",
"&. c #685E35",
"*. c #7D612F",
"=. c #6D6338",
"-. c #7D6437",
";. c #72673A",
":. c #776C3B",
">. c #253E75",
",. c #425046",
"<. c #7E6149",
"1. c #766A53",
"2. c #646C60",
"3. c #7E7B7F",
"4. c #805129",
"5. c #845228",
"6. c #825331",
"7. c #845534",
"8. c #885A32",
"9. c #8B5E31",
"0. c #896031",
"q. c #8B6233",
"w. c #8C6B35",
"e. c #926534",
"r. c #976834",
"t. c #9A6B35",
"y. c #9B6C36",
"u. c #90633B",
"i. c #986C3B",
"p. c #996E3F",
"a. c #9C713C",
"s. c #9F743D",
"d. c #A1733A",
"f. c #A57439",
"g. c #AB7D3F",
"h. c #926542",
"j. c #966A47",
"k. c #946E4B",
"l. c #9B7141",
"z. c #9F764E",
"x. c #A27640",
"c. c #A17743",
"v. c #A47B41",
"b. c #A87C40",
"n. c #A07A56",
"m. c #A47D59",
"M. c #87776C",
"N. c #918853",
"B. c #AF8141",
"V. c #AE8344",
"C. c #B18443",
"Z. c #B38746",
"A. c #B48745",
"S. c #B68946",
"D. c #BA8B45",
"F. c #B88C47",
"G. c #BE8E47",
"H. c #B1874B",
"J. c #B3884B",
"K. c #B1884D",
"L. c #B68C4E",
"P. c #B88C4C",
"I. c #B98E4C",
"U. c #BE9049",
"Y. c #BF924C",
"T. c #AF8759",
"R. c #AD895F",
"E. c #AD8E5D",
"W. c #B18B54",
"Q. c #B18B55",
"!. c #B18957",
"~. c #B99053",
"^. c #BF9451",
"/. c #8F817F",
"(. c #859B7D",
"). c #A99C65",
"_. c #A79B68",
"`. c #BB9662",
"'. c #BD986D",
"]. c #BF9B73",
"[. c #B09B7C",
"{. c #AEA974",
"}. c #B4A279",
"|. c #C19147",
" X c #C09149",
".X c #C1934B",
"XX c #C2944A",
"oX c #C5964B",
"OX c #C6974B",
"+X c #C2944C",
"@X c #C5974D",
"#X c #C7984D",
"$X c #C5984F",
"%X c #CA9A4C",
"&X c #CC9C4D",
"*X c #DAA851",
"=X c #DEAC52",
"-X c #C09C6F",
";X c #C6A067",
":X c #C5A273",
">X c #C8A47C",
",X c #CCA97D",
"<X c #31529C",
"1X c #556B9F",
"2X c #576DA2",
"3X c #6477A4",
"4X c #657AAD",
"5X c #3E9BAE",
"6X c #7180A6",
"7X c #7884A1",
"8X c #7E89A8",
"9X c #46AFAD",
"0X c #53CEE7",
"qX c #8D8984",
"wX c #90B59A",
"eX c #BEA886",
"rX c #B2AD92",
"tX c #979BAC",
"yX c #A19DA2",
"uX c #98A3BD",
"iX c #BFB6A7",
"pX c #B1ADB0",
"aX c #C0A284",
"sX c #C9A782",
"dX c #D5B48B",
"fX c #D6B68E",
"gX c #D7B889",
"hX c #DCBB8B",
"jX c #DABA8E",
"kX c #CDB490",
"lX c #DBC19A",
"zX c #DFC098",
"xX c #E3C49A",
"cX c #E5C799",
"vX c #E4C69B",
"bX c #E3C59F",
"nX c #CAC0B4",
"mX c #C7D1B9",
"MX c #C7D3BF",
"NX c #E8CBA2",
"BX c #EACDA0",
"VX c #EACEA2",
"CX c #EACDA4",
"ZX c #EED2A9",
"AX c #E4D2B8",
"SX c #F0DBBA",
"DX c #FDE4BC",
"FX c #D9CEC7",
"GX c #FFF2DE",
"HX c #FFF3DE",
"JX c white",
/* pixels */
"                                                                                                                                ",
"                                                                                                                                ",
"                                                                                                                                ",
"                                                                                                                                ",
"                                                                                                                                ",
"                                                                                                                                ",
"                                                                                                                                ",
"                                                                                                                                ",
"                                                                                                                                ",
"                                                                                                                                ",
"                                                                                                                                ",
"                                                                                                                                ",
"                                                                                                                                ",
"                                                                                                                                ",
"                                                                                                                                ",
"                                                                                                                                ",
"                                                                                                                                ",
"                                                                                                                                ",
"                                                                                                                                ",
"                                                        X d R R R R R k X X                                                     ",
"                                                      o : j R R R R R U , %                                                     ",
"                                                    X , R R R R R R R R R 1 X                                                   ",
"                                                X X 3 h R R R R R R R R R k f X X                                               ",
"                                                5 5 T T T T T T T T T T T T T & &                                               ",
"                                              6 M V V V V V V V V V V V V V V V V 7 7                                           ",
"                                            6 6 M V ( &.:.:.;.%.%.%.=.:.] ] ] C V 7 7                                           ",
"                                              6 M E e.B.&X&XXXv.b.v.P.&Xs.a.a.~ N 7 7                                           ",
"                                          6 6 6 ^ q.e.B.&XS.Z.&XP.v.D.&XOXA.a.a.-.7 7 a                                         ",
"                                          z z n q.e.d.D.&XB.V.&XOXV. X@X@XU.g.a.a.m 6 b                                         ",
"                                    9.'.xXe.e.e.e.d.&X&X&X&X+XH.Y.&XI.H.H.P.&Xv.a.a.a.a.jXZX                                    ",
"                                    9.'.NXT.i.e.g.G.&X&X&X+XI.H.Y.&XP.J.K.L.$X XC.a.c.!.vXZXZX                                  ",
"                                  9.9.'.ZXZX,Xe.G.%X&X&X&XL.J.J.Y.&XP.J.W.W.!.&X&Xa.:XZXZXZX                                    ",
"                                       .6.zX-Xe.d.B.&X&X&X$XY.J.J.L.;XcXVX`.Q.~.^.a.:XZXh.|                                     ",
"                                      | | rX}.d.e.e.&X&X&X&X$Xx.d.J.hXDXDXgXQ.Q.Q.g.E.mX| |                                     ",
"                                          0XwX&Xg.e.&X&X&X&X|.| 7.VXDXDXDX,XQ.l.r.&X{.0X                                        ",
"                                          5X(.&XB.e.F w.&Xf.5.j.sXDXDXAXtX3X/ O.r.&X).5X                                        ",
"                                          X } &XB.e.X q &X..| DXDXDXDXpX<X>.X { r.&X+.X                                         ",
"                                          X } &XB.p.iX7X<X#.| bXDXDX1X<X<X1XiXj.t.*XX.X                                         ",
"                                          X } &XB.R.HXuX<X$.7.DXDXDX3X<X<X4XHXT.y.=X-.X                                         ",
"                                              X X u HXuX<XtXDXDXDXDXGXnX<X4XHXE 4 4 :                                           ",
"                                              X X X n./.6XAXDXDXDXDXDXZXtXyXaXA 4 4                                             ",
"                                                X X 4.].DXDXDXDXDXDXDXDXDXfX4.l 4                                               ",
"                                              X H 4.4.u.z.>XdXdXdXdXdXdXz.8.4.l 4 4 4                                           ",
"                                            * 0 <.o.! Q W N._._._._._.).W W Q ' ,.r 8                                           ",
"                                          X t L FXMXY R R R R R R R R R R R R MXJXL c X                                         ",
"                                        X D G L M.2.d P R R R R R R R R R Y d 2.qXL L D - X                                     ",
"                                      X X L L L x o X d R R R R R R R R R f X o 0 L L L - X                                     ",
"                                      X X CXCXCX1.# j d , , N 9X9X9X, , , a j : [ CXCXCXS X                                     ",
"                                      X X [.[.lX) + R j , , N 9X9X9X, , , g R 1 B kXeX[.Z X                                     ",
"                                          o O O O + R R R R R R R R R R R R R 1 O O O o                                         ",
"                                            o O + + d P R R R R R R R R R Y f $ O O o o                                         ",
"                                                e + O f R R R R R R R R R P + + e                                               ",
"                                              X J @.@.J X X X X X X X X X v ` @.@.X                                             ",
"                                            X X J @.@.` v @ X X X X X X v K @.@.@.X X                                           ",
"                                              X J @.@.@.@.p X       X w @.@.@.@.@.X X                                           ",
"                                              X p v v v v y           = v v v v v X                                             ",
"                                                X X X X X               X X X X X                                               ",
"                                                                                                                                ",
"                                                                                                                                ",
"                                                                                                                                ",
"                                                                                                                                ",
"                                                                                                                                ",
"                                                                                                                                ",
"                                                                                                                                "
};
